G04 #@! TF.GenerationSoftware,KiCad,Pcbnew,(5.1.2-1)-1*
G04 #@! TF.CreationDate,2019-05-25T15:40:47+02:00*
G04 #@! TF.ProjectId,PSX64 Interface,50535836-3420-4496-9e74-657266616365,1.0*
G04 #@! TF.SameCoordinates,Original*
G04 #@! TF.FileFunction,Copper,L2,Bot*
G04 #@! TF.FilePolarity,Positive*
%FSLAX46Y46*%
G04 Gerber Fmt 4.6, Leading zero omitted, Abs format (unit mm)*
G04 Created by KiCad (PCBNEW (5.1.2-1)-1) date 2019-05-25 15:40:47*
%MOMM*%
%LPD*%
G04 APERTURE LIST*
%ADD10O,1.350000X1.350000*%
%ADD11R,1.350000X1.350000*%
%ADD12R,1.700000X1.700000*%
%ADD13O,1.700000X1.700000*%
%ADD14C,0.500000*%
%ADD15C,0.600000*%
%ADD16C,0.350000*%
%ADD17C,0.250000*%
%ADD18C,0.254000*%
G04 APERTURE END LIST*
D10*
X107500000Y-141000000D03*
X107500000Y-139000000D03*
X107500000Y-137000000D03*
X107500000Y-135000000D03*
X107500000Y-133000000D03*
X107500000Y-131000000D03*
X107500000Y-129000000D03*
X107500000Y-127000000D03*
D11*
X107500000Y-125000000D03*
X137400000Y-129000000D03*
D10*
X137400000Y-131000000D03*
D11*
X145000000Y-125000000D03*
D10*
X145000000Y-127000000D03*
X145000000Y-129000000D03*
X145000000Y-131000000D03*
X145000000Y-133000000D03*
X145000000Y-135000000D03*
X145000000Y-137000000D03*
X145000000Y-139000000D03*
X145000000Y-141000000D03*
D12*
X139900000Y-140000000D03*
D13*
X137360000Y-140000000D03*
X139900000Y-137460000D03*
X137360000Y-137460000D03*
X139900000Y-134920000D03*
X137360000Y-134920000D03*
D14*
X125000000Y-124868200D03*
X131500000Y-124500000D03*
X128000000Y-128000000D03*
X129734400Y-129000000D03*
X135500000Y-133000000D03*
X142500000Y-136000000D03*
X143500000Y-140000000D03*
X133000000Y-134500000D03*
X125000000Y-138000000D03*
X117500000Y-140500000D03*
X128500000Y-139000000D03*
D15*
X119640400Y-133955000D03*
D14*
X113279700Y-133427900D03*
X112895600Y-136509500D03*
X111338800Y-134172700D03*
X129140300Y-131429000D03*
X130410000Y-132345900D03*
X118458700Y-127252000D03*
X120870100Y-133945200D03*
X121553600Y-129492800D03*
X131259200Y-137777000D03*
X129595700Y-133945200D03*
X128248300Y-129206400D03*
X116906900Y-131567000D03*
D16*
X137400000Y-131000000D02*
X137400000Y-132050300D01*
X137360000Y-134920000D02*
X137360000Y-132090300D01*
X137360000Y-132090300D02*
X137400000Y-132050300D01*
X136349700Y-129000000D02*
X130769500Y-134580200D01*
X130769500Y-134580200D02*
X120265600Y-134580200D01*
X120265600Y-134580200D02*
X119640400Y-133955000D01*
X137400000Y-129000000D02*
X138450300Y-129000000D01*
X141706900Y-133189100D02*
X138450300Y-129932500D01*
X138450300Y-129932500D02*
X138450300Y-129000000D01*
X141706900Y-133189100D02*
X141706900Y-134846100D01*
X141706900Y-134846100D02*
X140363000Y-136190000D01*
X140363000Y-136190000D02*
X139366700Y-136190000D01*
X139366700Y-136190000D02*
X138585300Y-136971400D01*
X138585300Y-136971400D02*
X138585300Y-138009000D01*
X138585300Y-138009000D02*
X137819600Y-138774700D01*
X137819600Y-138774700D02*
X137360000Y-138774700D01*
X143949700Y-133000000D02*
X143760600Y-133189100D01*
X143760600Y-133189100D02*
X141706900Y-133189100D01*
X137400000Y-129000000D02*
X136349700Y-129000000D01*
X145000000Y-133000000D02*
X143949700Y-133000000D01*
X137360000Y-140000000D02*
X137360000Y-138774700D01*
D17*
X113279700Y-133427900D02*
X113506800Y-133655000D01*
X113506800Y-133655000D02*
X113506800Y-136726500D01*
X113506800Y-136726500D02*
X109233300Y-141000000D01*
X109233300Y-141000000D02*
X107500000Y-141000000D01*
X108500300Y-137000000D02*
X108990800Y-136509500D01*
X108990800Y-136509500D02*
X112895600Y-136509500D01*
X107500000Y-137000000D02*
X108500300Y-137000000D01*
X107500000Y-135000000D02*
X111325200Y-135000000D01*
X111325200Y-135000000D02*
X112162700Y-134162500D01*
X112162700Y-134162500D02*
X112162700Y-133731000D01*
X112162700Y-133731000D02*
X113050300Y-132843400D01*
X113050300Y-132843400D02*
X114119300Y-132843400D01*
X114119300Y-132843400D02*
X118477500Y-137201600D01*
X118477500Y-137201600D02*
X131993300Y-137201600D01*
X131993300Y-137201600D02*
X136417700Y-141626000D01*
X136417700Y-141626000D02*
X140492800Y-141626000D01*
X140492800Y-141626000D02*
X141081700Y-141037100D01*
X141081700Y-141037100D02*
X141081700Y-139009000D01*
X141081700Y-139009000D02*
X140708000Y-138635300D01*
X140708000Y-138635300D02*
X139900000Y-138635300D01*
X139900000Y-137460000D02*
X139900000Y-138635300D01*
X111338800Y-134172700D02*
X110166100Y-133000000D01*
X110166100Y-133000000D02*
X107500000Y-133000000D01*
X139900000Y-140000000D02*
X138724700Y-140000000D01*
X138724700Y-140000000D02*
X138724700Y-140367300D01*
X138724700Y-140367300D02*
X137916400Y-141175600D01*
X137916400Y-141175600D02*
X136873400Y-141175600D01*
X136873400Y-141175600D02*
X132449000Y-136751200D01*
X132449000Y-136751200D02*
X120090000Y-136751200D01*
X120090000Y-136751200D02*
X114338800Y-131000000D01*
X114338800Y-131000000D02*
X107500000Y-131000000D01*
X136184700Y-137460000D02*
X134575200Y-135850500D01*
X134575200Y-135850500D02*
X120014700Y-135850500D01*
X120014700Y-135850500D02*
X113164200Y-129000000D01*
X113164200Y-129000000D02*
X107500000Y-129000000D01*
X137360000Y-137460000D02*
X136184700Y-137460000D01*
X107500000Y-127000000D02*
X108500300Y-127000000D01*
X129140300Y-131429000D02*
X129140300Y-131428900D01*
X129140300Y-131428900D02*
X125632700Y-131428900D01*
X125632700Y-131428900D02*
X120880500Y-126676700D01*
X120880500Y-126676700D02*
X108823600Y-126676700D01*
X108823600Y-126676700D02*
X108500300Y-127000000D01*
X130410000Y-132345900D02*
X130410000Y-131863200D01*
X130410000Y-131863200D02*
X128428700Y-129881900D01*
X128428700Y-129881900D02*
X128056900Y-129881900D01*
X128056900Y-129881900D02*
X123175000Y-125000000D01*
X123175000Y-125000000D02*
X107500000Y-125000000D01*
X120870100Y-129492800D02*
X120699500Y-129492800D01*
X120699500Y-129492800D02*
X118458700Y-127252000D01*
X121553600Y-129492800D02*
X120870100Y-129492800D01*
X120870100Y-129492800D02*
X120870100Y-133945200D01*
X131259200Y-137777000D02*
X135558500Y-142076300D01*
X135558500Y-142076300D02*
X140694300Y-142076300D01*
X140694300Y-142076300D02*
X141844300Y-140926300D01*
X141844300Y-140926300D02*
X141844300Y-138155700D01*
X141844300Y-138155700D02*
X145000000Y-135000000D01*
X145000000Y-127000000D02*
X137102400Y-127000000D01*
X137102400Y-127000000D02*
X130157200Y-133945200D01*
X130157200Y-133945200D02*
X129595700Y-133945200D01*
X128248300Y-129206400D02*
X132454700Y-125000000D01*
X132454700Y-125000000D02*
X145000000Y-125000000D01*
X139900000Y-134920000D02*
X138724700Y-134920000D01*
X138724700Y-134920000D02*
X138724700Y-135287300D01*
X138724700Y-135287300D02*
X137875700Y-136136300D01*
X137875700Y-136136300D02*
X136914000Y-136136300D01*
X136914000Y-136136300D02*
X136177400Y-135399700D01*
X136177400Y-135399700D02*
X120200800Y-135399700D01*
X120200800Y-135399700D02*
X116906900Y-132105800D01*
X116906900Y-132105800D02*
X116906900Y-131567000D01*
D18*
G36*
X117913700Y-137712602D02*
G01*
X117937499Y-137741601D01*
X117966497Y-137765399D01*
X118053224Y-137836574D01*
X118185253Y-137907146D01*
X118328514Y-137950603D01*
X118477500Y-137965277D01*
X118514833Y-137961600D01*
X130393581Y-137961600D01*
X130408210Y-138035145D01*
X130474923Y-138196205D01*
X130571776Y-138341155D01*
X130695045Y-138464424D01*
X130839995Y-138561277D01*
X131001055Y-138627990D01*
X131043914Y-138636515D01*
X134197398Y-141790000D01*
X108546336Y-141790000D01*
X108570956Y-141760000D01*
X109195978Y-141760000D01*
X109233300Y-141763676D01*
X109270622Y-141760000D01*
X109270633Y-141760000D01*
X109382286Y-141749003D01*
X109525547Y-141705546D01*
X109657576Y-141634974D01*
X109773301Y-141540001D01*
X109797104Y-141510997D01*
X114017803Y-137290299D01*
X114046801Y-137266501D01*
X114141774Y-137150776D01*
X114212346Y-137018747D01*
X114255803Y-136875486D01*
X114266800Y-136763833D01*
X114266800Y-136763825D01*
X114270476Y-136726500D01*
X114266800Y-136689175D01*
X114266800Y-134065701D01*
X117913700Y-137712602D01*
X117913700Y-137712602D01*
G37*
X117913700Y-137712602D02*
X117937499Y-137741601D01*
X117966497Y-137765399D01*
X118053224Y-137836574D01*
X118185253Y-137907146D01*
X118328514Y-137950603D01*
X118477500Y-137965277D01*
X118514833Y-137961600D01*
X130393581Y-137961600D01*
X130408210Y-138035145D01*
X130474923Y-138196205D01*
X130571776Y-138341155D01*
X130695045Y-138464424D01*
X130839995Y-138561277D01*
X131001055Y-138627990D01*
X131043914Y-138636515D01*
X134197398Y-141790000D01*
X108546336Y-141790000D01*
X108570956Y-141760000D01*
X109195978Y-141760000D01*
X109233300Y-141763676D01*
X109270622Y-141760000D01*
X109270633Y-141760000D01*
X109382286Y-141749003D01*
X109525547Y-141705546D01*
X109657576Y-141634974D01*
X109773301Y-141540001D01*
X109797104Y-141510997D01*
X114017803Y-137290299D01*
X114046801Y-137266501D01*
X114141774Y-137150776D01*
X114212346Y-137018747D01*
X114255803Y-136875486D01*
X114266800Y-136763833D01*
X114266800Y-136763825D01*
X114270476Y-136726500D01*
X114266800Y-136689175D01*
X114266800Y-134065701D01*
X117913700Y-137712602D01*
G36*
X143783862Y-137503741D02*
G01*
X143905505Y-137731318D01*
X144069208Y-137930792D01*
X144153539Y-138000000D01*
X144069208Y-138069208D01*
X143905505Y-138268682D01*
X143783862Y-138496259D01*
X143708955Y-138743195D01*
X143683662Y-139000000D01*
X143708955Y-139256805D01*
X143783862Y-139503741D01*
X143905505Y-139731318D01*
X144069208Y-139930792D01*
X144153539Y-140000000D01*
X144069208Y-140069208D01*
X143905505Y-140268682D01*
X143783862Y-140496259D01*
X143708955Y-140743195D01*
X143683662Y-141000000D01*
X143708955Y-141256805D01*
X143783862Y-141503741D01*
X143905505Y-141731318D01*
X143953664Y-141790000D01*
X142055402Y-141790000D01*
X142355304Y-141490098D01*
X142384301Y-141466301D01*
X142479274Y-141350576D01*
X142549846Y-141218547D01*
X142593303Y-141075286D01*
X142604300Y-140963633D01*
X142604300Y-140963632D01*
X142607977Y-140926300D01*
X142604300Y-140888967D01*
X142604300Y-138470501D01*
X143734334Y-137340468D01*
X143783862Y-137503741D01*
X143783862Y-137503741D01*
G37*
X143783862Y-137503741D02*
X143905505Y-137731318D01*
X144069208Y-137930792D01*
X144153539Y-138000000D01*
X144069208Y-138069208D01*
X143905505Y-138268682D01*
X143783862Y-138496259D01*
X143708955Y-138743195D01*
X143683662Y-139000000D01*
X143708955Y-139256805D01*
X143783862Y-139503741D01*
X143905505Y-139731318D01*
X144069208Y-139930792D01*
X144153539Y-140000000D01*
X144069208Y-140069208D01*
X143905505Y-140268682D01*
X143783862Y-140496259D01*
X143708955Y-140743195D01*
X143683662Y-141000000D01*
X143708955Y-141256805D01*
X143783862Y-141503741D01*
X143905505Y-141731318D01*
X143953664Y-141790000D01*
X142055402Y-141790000D01*
X142355304Y-141490098D01*
X142384301Y-141466301D01*
X142479274Y-141350576D01*
X142549846Y-141218547D01*
X142593303Y-141075286D01*
X142604300Y-140963633D01*
X142604300Y-140963632D01*
X142607977Y-140926300D01*
X142604300Y-140888967D01*
X142604300Y-138470501D01*
X143734334Y-137340468D01*
X143783862Y-137503741D01*
G36*
X108918499Y-140240000D02*
G01*
X108570956Y-140240000D01*
X108430792Y-140069208D01*
X108342352Y-139996628D01*
X108478303Y-139871227D01*
X108629473Y-139663629D01*
X108737238Y-139430528D01*
X108767910Y-139329400D01*
X108644224Y-139127000D01*
X107627000Y-139127000D01*
X107627000Y-139147000D01*
X107373000Y-139147000D01*
X107373000Y-139127000D01*
X107353000Y-139127000D01*
X107353000Y-138873000D01*
X107373000Y-138873000D01*
X107373000Y-138853000D01*
X107627000Y-138853000D01*
X107627000Y-138873000D01*
X108644224Y-138873000D01*
X108767910Y-138670600D01*
X108737238Y-138569472D01*
X108629473Y-138336371D01*
X108478303Y-138128773D01*
X108342352Y-138003372D01*
X108430792Y-137930792D01*
X108573887Y-137756429D01*
X108649286Y-137749003D01*
X108792547Y-137705546D01*
X108924576Y-137634974D01*
X109040301Y-137540001D01*
X109064104Y-137510997D01*
X109305601Y-137269500D01*
X111888998Y-137269500D01*
X108918499Y-140240000D01*
X108918499Y-140240000D01*
G37*
X108918499Y-140240000D02*
X108570956Y-140240000D01*
X108430792Y-140069208D01*
X108342352Y-139996628D01*
X108478303Y-139871227D01*
X108629473Y-139663629D01*
X108737238Y-139430528D01*
X108767910Y-139329400D01*
X108644224Y-139127000D01*
X107627000Y-139127000D01*
X107627000Y-139147000D01*
X107373000Y-139147000D01*
X107373000Y-139127000D01*
X107353000Y-139127000D01*
X107353000Y-138873000D01*
X107373000Y-138873000D01*
X107373000Y-138853000D01*
X107627000Y-138853000D01*
X107627000Y-138873000D01*
X108644224Y-138873000D01*
X108767910Y-138670600D01*
X108737238Y-138569472D01*
X108629473Y-138336371D01*
X108478303Y-138128773D01*
X108342352Y-138003372D01*
X108430792Y-137930792D01*
X108573887Y-137756429D01*
X108649286Y-137749003D01*
X108792547Y-137705546D01*
X108924576Y-137634974D01*
X109040301Y-137540001D01*
X109064104Y-137510997D01*
X109305601Y-137269500D01*
X111888998Y-137269500D01*
X108918499Y-140240000D01*
G36*
X144153539Y-134000000D02*
G01*
X144069208Y-134069208D01*
X143905505Y-134268682D01*
X143783862Y-134496259D01*
X143708955Y-134743195D01*
X143683662Y-135000000D01*
X143705318Y-135219880D01*
X141384208Y-137540991D01*
X141392185Y-137460000D01*
X141363513Y-137168889D01*
X141278599Y-136888966D01*
X141140706Y-136630986D01*
X141107720Y-136590792D01*
X142251518Y-135446995D01*
X142282428Y-135421628D01*
X142383649Y-135298289D01*
X142427887Y-135215526D01*
X142458863Y-135157574D01*
X142469643Y-135122037D01*
X142505180Y-135004888D01*
X142516900Y-134885891D01*
X142516900Y-134885888D01*
X142520819Y-134846100D01*
X142516900Y-134806312D01*
X142516900Y-133999100D01*
X143720812Y-133999100D01*
X143760600Y-134003019D01*
X143800388Y-133999100D01*
X143800391Y-133999100D01*
X143919388Y-133987380D01*
X144072073Y-133941063D01*
X144077917Y-133937939D01*
X144153539Y-134000000D01*
X144153539Y-134000000D01*
G37*
X144153539Y-134000000D02*
X144069208Y-134069208D01*
X143905505Y-134268682D01*
X143783862Y-134496259D01*
X143708955Y-134743195D01*
X143683662Y-135000000D01*
X143705318Y-135219880D01*
X141384208Y-137540991D01*
X141392185Y-137460000D01*
X141363513Y-137168889D01*
X141278599Y-136888966D01*
X141140706Y-136630986D01*
X141107720Y-136590792D01*
X142251518Y-135446995D01*
X142282428Y-135421628D01*
X142383649Y-135298289D01*
X142427887Y-135215526D01*
X142458863Y-135157574D01*
X142469643Y-135122037D01*
X142505180Y-135004888D01*
X142516900Y-134885891D01*
X142516900Y-134885888D01*
X142520819Y-134846100D01*
X142516900Y-134806312D01*
X142516900Y-133999100D01*
X143720812Y-133999100D01*
X143760600Y-134003019D01*
X143800388Y-133999100D01*
X143800391Y-133999100D01*
X143919388Y-133987380D01*
X144072073Y-133941063D01*
X144077917Y-133937939D01*
X144153539Y-134000000D01*
G36*
X136367559Y-130203119D02*
G01*
X136270527Y-130336371D01*
X136162762Y-130569472D01*
X136132090Y-130670600D01*
X136255776Y-130873000D01*
X137273000Y-130873000D01*
X137273000Y-130853000D01*
X137527000Y-130853000D01*
X137527000Y-130873000D01*
X137547000Y-130873000D01*
X137547000Y-131127000D01*
X137527000Y-131127000D01*
X137527000Y-132145085D01*
X137729401Y-132267915D01*
X137970430Y-132179289D01*
X138189537Y-132045344D01*
X138378303Y-131871227D01*
X138529473Y-131663629D01*
X138637238Y-131430528D01*
X138667910Y-131329400D01*
X138614834Y-131242546D01*
X140896900Y-133524613D01*
X140896900Y-133817075D01*
X140729014Y-133679294D01*
X140471034Y-133541401D01*
X140191111Y-133456487D01*
X139972950Y-133435000D01*
X139827050Y-133435000D01*
X139608889Y-133456487D01*
X139328966Y-133541401D01*
X139070986Y-133679294D01*
X138844866Y-133864866D01*
X138659294Y-134090986D01*
X138628416Y-134148756D01*
X138457588Y-133919731D01*
X138241355Y-133724822D01*
X137991252Y-133575843D01*
X137716891Y-133478519D01*
X137487000Y-133599186D01*
X137487000Y-134793000D01*
X137507000Y-134793000D01*
X137507000Y-135047000D01*
X137487000Y-135047000D01*
X137487000Y-135067000D01*
X137233000Y-135067000D01*
X137233000Y-135047000D01*
X137213000Y-135047000D01*
X137213000Y-134793000D01*
X137233000Y-134793000D01*
X137233000Y-133599186D01*
X137003109Y-133478519D01*
X136728748Y-133575843D01*
X136478645Y-133724822D01*
X136262412Y-133919731D01*
X136088359Y-134153080D01*
X135963175Y-134415901D01*
X135918524Y-134563110D01*
X135958943Y-134639700D01*
X131855512Y-134639700D01*
X135165812Y-131329400D01*
X136132090Y-131329400D01*
X136162762Y-131430528D01*
X136270527Y-131663629D01*
X136421697Y-131871227D01*
X136610463Y-132045344D01*
X136829570Y-132179289D01*
X137070599Y-132267915D01*
X137273000Y-132145085D01*
X137273000Y-131127000D01*
X136255776Y-131127000D01*
X136132090Y-131329400D01*
X135165812Y-131329400D01*
X136326110Y-130169103D01*
X136367559Y-130203119D01*
X136367559Y-130203119D01*
G37*
X136367559Y-130203119D02*
X136270527Y-130336371D01*
X136162762Y-130569472D01*
X136132090Y-130670600D01*
X136255776Y-130873000D01*
X137273000Y-130873000D01*
X137273000Y-130853000D01*
X137527000Y-130853000D01*
X137527000Y-130873000D01*
X137547000Y-130873000D01*
X137547000Y-131127000D01*
X137527000Y-131127000D01*
X137527000Y-132145085D01*
X137729401Y-132267915D01*
X137970430Y-132179289D01*
X138189537Y-132045344D01*
X138378303Y-131871227D01*
X138529473Y-131663629D01*
X138637238Y-131430528D01*
X138667910Y-131329400D01*
X138614834Y-131242546D01*
X140896900Y-133524613D01*
X140896900Y-133817075D01*
X140729014Y-133679294D01*
X140471034Y-133541401D01*
X140191111Y-133456487D01*
X139972950Y-133435000D01*
X139827050Y-133435000D01*
X139608889Y-133456487D01*
X139328966Y-133541401D01*
X139070986Y-133679294D01*
X138844866Y-133864866D01*
X138659294Y-134090986D01*
X138628416Y-134148756D01*
X138457588Y-133919731D01*
X138241355Y-133724822D01*
X137991252Y-133575843D01*
X137716891Y-133478519D01*
X137487000Y-133599186D01*
X137487000Y-134793000D01*
X137507000Y-134793000D01*
X137507000Y-135047000D01*
X137487000Y-135047000D01*
X137487000Y-135067000D01*
X137233000Y-135067000D01*
X137233000Y-135047000D01*
X137213000Y-135047000D01*
X137213000Y-134793000D01*
X137233000Y-134793000D01*
X137233000Y-133599186D01*
X137003109Y-133478519D01*
X136728748Y-133575843D01*
X136478645Y-133724822D01*
X136262412Y-133919731D01*
X136088359Y-134153080D01*
X135963175Y-134415901D01*
X135918524Y-134563110D01*
X135958943Y-134639700D01*
X131855512Y-134639700D01*
X135165812Y-131329400D01*
X136132090Y-131329400D01*
X136162762Y-131430528D01*
X136270527Y-131663629D01*
X136421697Y-131871227D01*
X136610463Y-132045344D01*
X136829570Y-132179289D01*
X137070599Y-132267915D01*
X137273000Y-132145085D01*
X137273000Y-131127000D01*
X136255776Y-131127000D01*
X136132090Y-131329400D01*
X135165812Y-131329400D01*
X136326110Y-130169103D01*
X136367559Y-130203119D01*
G36*
X144069208Y-127930792D02*
G01*
X144153539Y-128000000D01*
X144069208Y-128069208D01*
X143905505Y-128268682D01*
X143783862Y-128496259D01*
X143708955Y-128743195D01*
X143683662Y-129000000D01*
X143708955Y-129256805D01*
X143783862Y-129503741D01*
X143905505Y-129731318D01*
X144069208Y-129930792D01*
X144157648Y-130003372D01*
X144021697Y-130128773D01*
X143870527Y-130336371D01*
X143762762Y-130569472D01*
X143732090Y-130670600D01*
X143855776Y-130873000D01*
X144873000Y-130873000D01*
X144873000Y-130853000D01*
X145127000Y-130853000D01*
X145127000Y-130873000D01*
X145147000Y-130873000D01*
X145147000Y-131127000D01*
X145127000Y-131127000D01*
X145127000Y-131147000D01*
X144873000Y-131147000D01*
X144873000Y-131127000D01*
X143855776Y-131127000D01*
X143732090Y-131329400D01*
X143762762Y-131430528D01*
X143870527Y-131663629D01*
X144021697Y-131871227D01*
X144157648Y-131996628D01*
X144069208Y-132069208D01*
X143971529Y-132188231D01*
X143949700Y-132186081D01*
X143909912Y-132190000D01*
X143909909Y-132190000D01*
X143790912Y-132201720D01*
X143638227Y-132248037D01*
X143497511Y-132323251D01*
X143429458Y-132379100D01*
X142042413Y-132379100D01*
X139260300Y-129596988D01*
X139260300Y-129039791D01*
X139264219Y-129000000D01*
X139248580Y-128841212D01*
X139202263Y-128688527D01*
X139127049Y-128547811D01*
X139025828Y-128424472D01*
X138902489Y-128323251D01*
X138761773Y-128248037D01*
X138703759Y-128230438D01*
X138700812Y-128200518D01*
X138664502Y-128080820D01*
X138605537Y-127970506D01*
X138526185Y-127873815D01*
X138429494Y-127794463D01*
X138365019Y-127760000D01*
X143929044Y-127760000D01*
X144069208Y-127930792D01*
X144069208Y-127930792D01*
G37*
X144069208Y-127930792D02*
X144153539Y-128000000D01*
X144069208Y-128069208D01*
X143905505Y-128268682D01*
X143783862Y-128496259D01*
X143708955Y-128743195D01*
X143683662Y-129000000D01*
X143708955Y-129256805D01*
X143783862Y-129503741D01*
X143905505Y-129731318D01*
X144069208Y-129930792D01*
X144157648Y-130003372D01*
X144021697Y-130128773D01*
X143870527Y-130336371D01*
X143762762Y-130569472D01*
X143732090Y-130670600D01*
X143855776Y-130873000D01*
X144873000Y-130873000D01*
X144873000Y-130853000D01*
X145127000Y-130853000D01*
X145127000Y-130873000D01*
X145147000Y-130873000D01*
X145147000Y-131127000D01*
X145127000Y-131127000D01*
X145127000Y-131147000D01*
X144873000Y-131147000D01*
X144873000Y-131127000D01*
X143855776Y-131127000D01*
X143732090Y-131329400D01*
X143762762Y-131430528D01*
X143870527Y-131663629D01*
X144021697Y-131871227D01*
X144157648Y-131996628D01*
X144069208Y-132069208D01*
X143971529Y-132188231D01*
X143949700Y-132186081D01*
X143909912Y-132190000D01*
X143909909Y-132190000D01*
X143790912Y-132201720D01*
X143638227Y-132248037D01*
X143497511Y-132323251D01*
X143429458Y-132379100D01*
X142042413Y-132379100D01*
X139260300Y-129596988D01*
X139260300Y-129039791D01*
X139264219Y-129000000D01*
X139248580Y-128841212D01*
X139202263Y-128688527D01*
X139127049Y-128547811D01*
X139025828Y-128424472D01*
X138902489Y-128323251D01*
X138761773Y-128248037D01*
X138703759Y-128230438D01*
X138700812Y-128200518D01*
X138664502Y-128080820D01*
X138605537Y-127970506D01*
X138526185Y-127873815D01*
X138429494Y-127794463D01*
X138365019Y-127760000D01*
X143929044Y-127760000D01*
X144069208Y-127930792D01*
G36*
X143699188Y-125799482D02*
G01*
X143735498Y-125919180D01*
X143794463Y-126029494D01*
X143873815Y-126126185D01*
X143962631Y-126199074D01*
X143929044Y-126240000D01*
X137139722Y-126240000D01*
X137102399Y-126236324D01*
X137065076Y-126240000D01*
X137065067Y-126240000D01*
X136953414Y-126250997D01*
X136810153Y-126294454D01*
X136678123Y-126365026D01*
X136634277Y-126401010D01*
X136562399Y-126459999D01*
X136538601Y-126488997D01*
X131172844Y-131854754D01*
X131170000Y-131825876D01*
X131170000Y-131825868D01*
X131159003Y-131714214D01*
X131115546Y-131570953D01*
X131044974Y-131438924D01*
X130950001Y-131323199D01*
X130921003Y-131299401D01*
X129095440Y-129473839D01*
X129099290Y-129464545D01*
X129107815Y-129421686D01*
X132769502Y-125760000D01*
X143695299Y-125760000D01*
X143699188Y-125799482D01*
X143699188Y-125799482D01*
G37*
X143699188Y-125799482D02*
X143735498Y-125919180D01*
X143794463Y-126029494D01*
X143873815Y-126126185D01*
X143962631Y-126199074D01*
X143929044Y-126240000D01*
X137139722Y-126240000D01*
X137102399Y-126236324D01*
X137065076Y-126240000D01*
X137065067Y-126240000D01*
X136953414Y-126250997D01*
X136810153Y-126294454D01*
X136678123Y-126365026D01*
X136634277Y-126401010D01*
X136562399Y-126459999D01*
X136538601Y-126488997D01*
X131172844Y-131854754D01*
X131170000Y-131825876D01*
X131170000Y-131825868D01*
X131159003Y-131714214D01*
X131115546Y-131570953D01*
X131044974Y-131438924D01*
X130950001Y-131323199D01*
X130921003Y-131299401D01*
X129095440Y-129473839D01*
X129099290Y-129464545D01*
X129107815Y-129421686D01*
X132769502Y-125760000D01*
X143695299Y-125760000D01*
X143699188Y-125799482D01*
G36*
X143695299Y-124240000D02*
G01*
X132492023Y-124240000D01*
X132454700Y-124236324D01*
X132417377Y-124240000D01*
X132417367Y-124240000D01*
X132305714Y-124250997D01*
X132165499Y-124293530D01*
X132162453Y-124294454D01*
X132030423Y-124365026D01*
X131979522Y-124406800D01*
X131914699Y-124459999D01*
X131890901Y-124488997D01*
X128033014Y-128346885D01*
X127990155Y-128355410D01*
X127829095Y-128422123D01*
X127734879Y-128485077D01*
X123738804Y-124489003D01*
X123715001Y-124459999D01*
X123599276Y-124365026D01*
X123467247Y-124294454D01*
X123323986Y-124250997D01*
X123212333Y-124240000D01*
X123212322Y-124240000D01*
X123175000Y-124236324D01*
X123137678Y-124240000D01*
X108804701Y-124240000D01*
X108801746Y-124210000D01*
X143698254Y-124210000D01*
X143695299Y-124240000D01*
X143695299Y-124240000D01*
G37*
X143695299Y-124240000D02*
X132492023Y-124240000D01*
X132454700Y-124236324D01*
X132417377Y-124240000D01*
X132417367Y-124240000D01*
X132305714Y-124250997D01*
X132165499Y-124293530D01*
X132162453Y-124294454D01*
X132030423Y-124365026D01*
X131979522Y-124406800D01*
X131914699Y-124459999D01*
X131890901Y-124488997D01*
X128033014Y-128346885D01*
X127990155Y-128355410D01*
X127829095Y-128422123D01*
X127734879Y-128485077D01*
X123738804Y-124489003D01*
X123715001Y-124459999D01*
X123599276Y-124365026D01*
X123467247Y-124294454D01*
X123323986Y-124250997D01*
X123212333Y-124240000D01*
X123212322Y-124240000D01*
X123175000Y-124236324D01*
X123137678Y-124240000D01*
X108804701Y-124240000D01*
X108801746Y-124210000D01*
X143698254Y-124210000D01*
X143695299Y-124240000D01*
M02*
