M48
; DRILL file {KiCad (5.1.2-1)-1} date Samstag, 25. Mai 2019 um 15:40:51
; FORMAT={-:-/ absolute / inch / decimal}
; #@! TF.CreationDate,2019-05-25T15:40:51+02:00
; #@! TF.GenerationSoftware,Kicad,Pcbnew,(5.1.2-1)-1
FMAT,2
INCH
T1C0.0118
T2C0.0157
T3C0.0315
T4C0.0394
%
G90
G05
T1
X4.3834Y-5.2824
X4.4447Y-5.3744
X4.4598Y-5.2531
X4.6026Y-5.1798
X4.626Y-5.5315
X4.6637Y-5.0099
X4.7587Y-5.2734
X4.7856Y-5.0981
X4.9213Y-4.9161
X4.9213Y-5.4331
X5.0394Y-5.0394
X5.0491Y-5.0869
X5.0591Y-5.4724
X5.0843Y-5.1744
X5.1022Y-5.2734
X5.1077Y-5.0787
X5.1343Y-5.2105
X5.1677Y-5.4243
X5.1772Y-4.9016
X5.2362Y-5.2953
X5.3346Y-5.2362
X5.6102Y-5.3543
X5.6496Y-5.5118
T2
X4.7103Y-5.2738
T3
X4.2323Y-4.9213
X4.2323Y-5.0
X4.2323Y-5.0787
X4.2323Y-5.1575
X4.2323Y-5.2362
X4.2323Y-5.315
X4.2323Y-5.3937
X4.2323Y-5.4724
X4.2323Y-5.5512
X5.4094Y-5.0787
X5.4094Y-5.1575
X5.7087Y-4.9213
X5.7087Y-5.0
X5.7087Y-5.0787
X5.7087Y-5.1575
X5.7087Y-5.2362
X5.7087Y-5.315
X5.7087Y-5.3937
X5.7087Y-5.4724
X5.7087Y-5.5512
T4
X5.4079Y-5.3118
X5.4079Y-5.4118
X5.4079Y-5.5118
X5.5079Y-5.3118
X5.5079Y-5.4118
X5.5079Y-5.5118
T0
M30
