G04 #@! TF.GenerationSoftware,KiCad,Pcbnew,(5.1.2-1)-1*
G04 #@! TF.CreationDate,2019-05-25T15:40:47+02:00*
G04 #@! TF.ProjectId,PSX64 Interface,50535836-3420-4496-9e74-657266616365,1.0*
G04 #@! TF.SameCoordinates,Original*
G04 #@! TF.FileFunction,Copper,L1,Top*
G04 #@! TF.FilePolarity,Positive*
%FSLAX46Y46*%
G04 Gerber Fmt 4.6, Leading zero omitted, Abs format (unit mm)*
G04 Created by KiCad (PCBNEW (5.1.2-1)-1) date 2019-05-25 15:40:47*
%MOMM*%
%LPD*%
G04 APERTURE LIST*
%ADD10C,0.550000*%
%ADD11C,0.100000*%
%ADD12R,1.400000X1.360000*%
%ADD13R,1.500000X0.970000*%
%ADD14R,0.970000X1.500000*%
%ADD15R,1.800000X2.500000*%
%ADD16O,1.350000X1.350000*%
%ADD17R,1.350000X1.350000*%
%ADD18R,1.550000X0.600000*%
%ADD19R,2.000000X2.400000*%
%ADD20R,1.700000X1.700000*%
%ADD21O,1.700000X1.700000*%
%ADD22C,0.500000*%
%ADD23C,0.600000*%
%ADD24C,0.350000*%
%ADD25C,0.250000*%
%ADD26C,0.254000*%
G04 APERTURE END LIST*
D10*
X123314897Y-129974695D03*
D11*
G36*
X124075037Y-130345926D02*
G01*
X123686128Y-130734835D01*
X122554757Y-129603464D01*
X122943666Y-129214555D01*
X124075037Y-130345926D01*
X124075037Y-130345926D01*
G37*
D10*
X123880583Y-129409010D03*
D11*
G36*
X124640723Y-129780241D02*
G01*
X124251814Y-130169150D01*
X123120443Y-129037779D01*
X123509352Y-128648870D01*
X124640723Y-129780241D01*
X124640723Y-129780241D01*
G37*
D10*
X124446268Y-128843324D03*
D11*
G36*
X125206408Y-129214555D02*
G01*
X124817499Y-129603464D01*
X123686128Y-128472093D01*
X124075037Y-128083184D01*
X125206408Y-129214555D01*
X125206408Y-129214555D01*
G37*
D10*
X125011953Y-128277639D03*
D11*
G36*
X125772093Y-128648870D02*
G01*
X125383184Y-129037779D01*
X124251813Y-127906408D01*
X124640722Y-127517499D01*
X125772093Y-128648870D01*
X125772093Y-128648870D01*
G37*
D10*
X125577639Y-127711953D03*
D11*
G36*
X126337779Y-128083184D02*
G01*
X125948870Y-128472093D01*
X124817499Y-127340722D01*
X125206408Y-126951813D01*
X126337779Y-128083184D01*
X126337779Y-128083184D01*
G37*
D10*
X126143324Y-127146268D03*
D11*
G36*
X126903464Y-127517499D02*
G01*
X126514555Y-127906408D01*
X125383184Y-126775037D01*
X125772093Y-126386128D01*
X126903464Y-127517499D01*
X126903464Y-127517499D01*
G37*
D10*
X126709010Y-126580583D03*
D11*
G36*
X127469150Y-126951814D02*
G01*
X127080241Y-127340723D01*
X125948870Y-126209352D01*
X126337779Y-125820443D01*
X127469150Y-126951814D01*
X127469150Y-126951814D01*
G37*
D10*
X127274695Y-126014897D03*
D11*
G36*
X128034835Y-126386128D02*
G01*
X127645926Y-126775037D01*
X126514555Y-125643666D01*
X126903464Y-125254757D01*
X128034835Y-126386128D01*
X128034835Y-126386128D01*
G37*
D10*
X129325305Y-126014897D03*
D11*
G36*
X128954074Y-126775037D02*
G01*
X128565165Y-126386128D01*
X129696536Y-125254757D01*
X130085445Y-125643666D01*
X128954074Y-126775037D01*
X128954074Y-126775037D01*
G37*
D10*
X129890990Y-126580583D03*
D11*
G36*
X129519759Y-127340723D02*
G01*
X129130850Y-126951814D01*
X130262221Y-125820443D01*
X130651130Y-126209352D01*
X129519759Y-127340723D01*
X129519759Y-127340723D01*
G37*
D10*
X130456676Y-127146268D03*
D11*
G36*
X130085445Y-127906408D02*
G01*
X129696536Y-127517499D01*
X130827907Y-126386128D01*
X131216816Y-126775037D01*
X130085445Y-127906408D01*
X130085445Y-127906408D01*
G37*
D10*
X131022361Y-127711953D03*
D11*
G36*
X130651130Y-128472093D02*
G01*
X130262221Y-128083184D01*
X131393592Y-126951813D01*
X131782501Y-127340722D01*
X130651130Y-128472093D01*
X130651130Y-128472093D01*
G37*
D10*
X131588047Y-128277639D03*
D11*
G36*
X131216816Y-129037779D02*
G01*
X130827907Y-128648870D01*
X131959278Y-127517499D01*
X132348187Y-127906408D01*
X131216816Y-129037779D01*
X131216816Y-129037779D01*
G37*
D10*
X132153732Y-128843324D03*
D11*
G36*
X131782501Y-129603464D02*
G01*
X131393592Y-129214555D01*
X132524963Y-128083184D01*
X132913872Y-128472093D01*
X131782501Y-129603464D01*
X131782501Y-129603464D01*
G37*
D10*
X132719417Y-129409010D03*
D11*
G36*
X132348186Y-130169150D02*
G01*
X131959277Y-129780241D01*
X133090648Y-128648870D01*
X133479557Y-129037779D01*
X132348186Y-130169150D01*
X132348186Y-130169150D01*
G37*
D10*
X133285103Y-129974695D03*
D11*
G36*
X132913872Y-130734835D02*
G01*
X132524963Y-130345926D01*
X133656334Y-129214555D01*
X134045243Y-129603464D01*
X132913872Y-130734835D01*
X132913872Y-130734835D01*
G37*
D10*
X133285103Y-132025305D03*
D11*
G36*
X134045243Y-132396536D02*
G01*
X133656334Y-132785445D01*
X132524963Y-131654074D01*
X132913872Y-131265165D01*
X134045243Y-132396536D01*
X134045243Y-132396536D01*
G37*
D10*
X132719417Y-132590990D03*
D11*
G36*
X133479557Y-132962221D02*
G01*
X133090648Y-133351130D01*
X131959277Y-132219759D01*
X132348186Y-131830850D01*
X133479557Y-132962221D01*
X133479557Y-132962221D01*
G37*
D10*
X132153732Y-133156676D03*
D11*
G36*
X132913872Y-133527907D02*
G01*
X132524963Y-133916816D01*
X131393592Y-132785445D01*
X131782501Y-132396536D01*
X132913872Y-133527907D01*
X132913872Y-133527907D01*
G37*
D10*
X131588047Y-133722361D03*
D11*
G36*
X132348187Y-134093592D02*
G01*
X131959278Y-134482501D01*
X130827907Y-133351130D01*
X131216816Y-132962221D01*
X132348187Y-134093592D01*
X132348187Y-134093592D01*
G37*
D10*
X131022361Y-134288047D03*
D11*
G36*
X131782501Y-134659278D02*
G01*
X131393592Y-135048187D01*
X130262221Y-133916816D01*
X130651130Y-133527907D01*
X131782501Y-134659278D01*
X131782501Y-134659278D01*
G37*
D10*
X130456676Y-134853732D03*
D11*
G36*
X131216816Y-135224963D02*
G01*
X130827907Y-135613872D01*
X129696536Y-134482501D01*
X130085445Y-134093592D01*
X131216816Y-135224963D01*
X131216816Y-135224963D01*
G37*
D10*
X129890990Y-135419417D03*
D11*
G36*
X130651130Y-135790648D02*
G01*
X130262221Y-136179557D01*
X129130850Y-135048186D01*
X129519759Y-134659277D01*
X130651130Y-135790648D01*
X130651130Y-135790648D01*
G37*
D10*
X129325305Y-135985103D03*
D11*
G36*
X130085445Y-136356334D02*
G01*
X129696536Y-136745243D01*
X128565165Y-135613872D01*
X128954074Y-135224963D01*
X130085445Y-136356334D01*
X130085445Y-136356334D01*
G37*
D10*
X127274695Y-135985103D03*
D11*
G36*
X126903464Y-136745243D02*
G01*
X126514555Y-136356334D01*
X127645926Y-135224963D01*
X128034835Y-135613872D01*
X126903464Y-136745243D01*
X126903464Y-136745243D01*
G37*
D10*
X126709010Y-135419417D03*
D11*
G36*
X126337779Y-136179557D02*
G01*
X125948870Y-135790648D01*
X127080241Y-134659277D01*
X127469150Y-135048186D01*
X126337779Y-136179557D01*
X126337779Y-136179557D01*
G37*
D10*
X126143324Y-134853732D03*
D11*
G36*
X125772093Y-135613872D02*
G01*
X125383184Y-135224963D01*
X126514555Y-134093592D01*
X126903464Y-134482501D01*
X125772093Y-135613872D01*
X125772093Y-135613872D01*
G37*
D10*
X125577639Y-134288047D03*
D11*
G36*
X125206408Y-135048187D02*
G01*
X124817499Y-134659278D01*
X125948870Y-133527907D01*
X126337779Y-133916816D01*
X125206408Y-135048187D01*
X125206408Y-135048187D01*
G37*
D10*
X125011953Y-133722361D03*
D11*
G36*
X124640722Y-134482501D02*
G01*
X124251813Y-134093592D01*
X125383184Y-132962221D01*
X125772093Y-133351130D01*
X124640722Y-134482501D01*
X124640722Y-134482501D01*
G37*
D10*
X124446268Y-133156676D03*
D11*
G36*
X124075037Y-133916816D02*
G01*
X123686128Y-133527907D01*
X124817499Y-132396536D01*
X125206408Y-132785445D01*
X124075037Y-133916816D01*
X124075037Y-133916816D01*
G37*
D10*
X123880583Y-132590990D03*
D11*
G36*
X123509352Y-133351130D02*
G01*
X123120443Y-132962221D01*
X124251814Y-131830850D01*
X124640723Y-132219759D01*
X123509352Y-133351130D01*
X123509352Y-133351130D01*
G37*
D10*
X123314897Y-132025305D03*
D11*
G36*
X122943666Y-132785445D02*
G01*
X122554757Y-132396536D01*
X123686128Y-131265165D01*
X124075037Y-131654074D01*
X122943666Y-132785445D01*
X122943666Y-132785445D01*
G37*
D12*
X140900000Y-128620000D03*
X140900000Y-131380000D03*
D13*
X123300000Y-139045000D03*
X123300000Y-140955000D03*
X133300000Y-140955000D03*
X133300000Y-139045000D03*
D14*
X135855000Y-126000000D03*
X133945000Y-126000000D03*
D15*
X111500000Y-136000000D03*
X111500000Y-140000000D03*
X111500000Y-130000000D03*
X111500000Y-126000000D03*
D16*
X107500000Y-141000000D03*
X107500000Y-139000000D03*
X107500000Y-137000000D03*
X107500000Y-135000000D03*
X107500000Y-133000000D03*
X107500000Y-131000000D03*
X107500000Y-129000000D03*
X107500000Y-127000000D03*
D17*
X107500000Y-125000000D03*
X137400000Y-129000000D03*
D16*
X137400000Y-131000000D03*
D17*
X145000000Y-125000000D03*
D16*
X145000000Y-127000000D03*
X145000000Y-129000000D03*
X145000000Y-131000000D03*
X145000000Y-133000000D03*
X145000000Y-135000000D03*
X145000000Y-137000000D03*
X145000000Y-139000000D03*
X145000000Y-141000000D03*
D14*
X139445000Y-126000000D03*
X141355000Y-126000000D03*
D13*
X114900000Y-132045000D03*
X114900000Y-133955000D03*
D18*
X120400000Y-140905000D03*
X120400000Y-139635000D03*
X120400000Y-138365000D03*
X120400000Y-137095000D03*
X115000000Y-137095000D03*
X115000000Y-138365000D03*
X115000000Y-139635000D03*
X115000000Y-140905000D03*
X115000000Y-128905000D03*
X115000000Y-127635000D03*
X115000000Y-126365000D03*
X115000000Y-125095000D03*
X120400000Y-125095000D03*
X120400000Y-126365000D03*
X120400000Y-127635000D03*
X120400000Y-128905000D03*
D19*
X126450000Y-140000000D03*
X130150000Y-140000000D03*
D20*
X139900000Y-140000000D03*
D21*
X137360000Y-140000000D03*
X139900000Y-137460000D03*
X137360000Y-137460000D03*
X139900000Y-134920000D03*
X137360000Y-134920000D03*
D22*
X125000000Y-124868200D03*
X131500000Y-124500000D03*
X128000000Y-128000000D03*
X129734400Y-129000000D03*
X135500000Y-133000000D03*
X142500000Y-136000000D03*
X143500000Y-140000000D03*
X133000000Y-134500000D03*
X125000000Y-138000000D03*
X117500000Y-140500000D03*
X128500000Y-139000000D03*
D23*
X119640400Y-133955000D03*
D22*
X113279700Y-133427900D03*
X112895600Y-136509500D03*
X111338800Y-134172700D03*
X129140300Y-131429000D03*
X130410000Y-132345900D03*
X118458700Y-127252000D03*
X120870100Y-133945200D03*
X121553600Y-129492800D03*
X131259200Y-137777000D03*
X129595700Y-133945200D03*
X128248300Y-129206400D03*
X116906900Y-131567000D03*
D24*
X125277400Y-132325600D02*
X126408800Y-132325600D01*
X126408800Y-132325600D02*
X129734400Y-129000000D01*
X124596300Y-135119100D02*
X124596300Y-135269300D01*
X124596300Y-135269300D02*
X122770600Y-137095000D01*
X123615200Y-133987800D02*
X124596300Y-134968900D01*
X124596300Y-134968900D02*
X124596300Y-135119100D01*
X124596300Y-135119100D02*
X124746500Y-135119100D01*
X125577600Y-134288000D02*
X124746500Y-135119100D01*
X122770600Y-137095000D02*
X121550300Y-137095000D01*
X122770600Y-137095000D02*
X122770600Y-137655300D01*
X122770600Y-137655300D02*
X123300000Y-138184700D01*
X124446300Y-133156700D02*
X123615200Y-133987800D01*
X124861900Y-132741100D02*
X124446300Y-133156700D01*
X124861900Y-132741100D02*
X125277400Y-132325600D01*
X122000800Y-141438100D02*
X122000800Y-140344200D01*
X122000800Y-140344200D02*
X123300000Y-139045000D01*
X140900000Y-131380000D02*
X139824700Y-131380000D01*
X137400000Y-131000000D02*
X139444700Y-131000000D01*
X139444700Y-131000000D02*
X139824700Y-131380000D01*
X133300000Y-139045000D02*
X134425400Y-140170400D01*
X134425400Y-140170400D02*
X134425400Y-141609800D01*
X134425400Y-141609800D02*
X134219800Y-141815400D01*
X134219800Y-141815400D02*
X122378100Y-141815400D01*
X122378100Y-141815400D02*
X122000800Y-141438100D01*
X122000800Y-141438100D02*
X121813500Y-141625400D01*
X121813500Y-141625400D02*
X110388000Y-141625400D01*
X110388000Y-141625400D02*
X108550300Y-139787700D01*
X108550300Y-139787700D02*
X108550300Y-139000000D01*
X107500000Y-139000000D02*
X108550300Y-139000000D01*
X123300000Y-139045000D02*
X123300000Y-138975200D01*
X123300000Y-138872400D02*
X123300000Y-138975200D01*
X123300000Y-138872400D02*
X123300000Y-138184700D01*
X120400000Y-137095000D02*
X121550300Y-137095000D01*
X133945000Y-126000000D02*
X134805300Y-126000000D01*
X143949700Y-131000000D02*
X143949700Y-129756700D01*
X143949700Y-129756700D02*
X141757600Y-127564600D01*
X141757600Y-127564600D02*
X141126000Y-127564600D01*
X141126000Y-127564600D02*
X140494600Y-126933200D01*
X140494600Y-126933200D02*
X140494600Y-125260600D01*
X140494600Y-125260600D02*
X140108600Y-124874600D01*
X140108600Y-124874600D02*
X135177900Y-124874600D01*
X135177900Y-124874600D02*
X134805300Y-125247200D01*
X134805300Y-125247200D02*
X134805300Y-126000000D01*
X144087300Y-131000000D02*
X143949700Y-131000000D01*
X145000000Y-131000000D02*
X144087300Y-131000000D01*
X131853500Y-126880900D02*
X132203800Y-126880900D01*
X132203800Y-126880900D02*
X133084700Y-126000000D01*
X133945000Y-126000000D02*
X133084700Y-126000000D01*
X140900000Y-131380000D02*
X143569700Y-131380000D01*
X143569700Y-131380000D02*
X143949700Y-131000000D01*
X131853500Y-126880900D02*
X129840800Y-124868200D01*
X129840800Y-124868200D02*
X125000000Y-124868200D01*
X121777100Y-124868200D02*
X121550300Y-125095000D01*
X131022400Y-127712000D02*
X131853500Y-126880900D01*
X131022400Y-127712000D02*
X130191300Y-128543100D01*
X120400000Y-125095000D02*
X121550300Y-125095000D01*
X125000000Y-124868200D02*
X121777100Y-124868200D01*
X129734400Y-129000000D02*
X130191300Y-128543100D01*
X139361900Y-128157200D02*
X139824700Y-128620000D01*
X137400000Y-128474800D02*
X137717600Y-128157200D01*
X137717600Y-128157200D02*
X139361900Y-128157200D01*
X139361900Y-128157200D02*
X139361900Y-127208400D01*
X139361900Y-127208400D02*
X139445000Y-127125300D01*
X140900000Y-128620000D02*
X139824700Y-128620000D01*
X139445000Y-126000000D02*
X139445000Y-127125300D01*
X137400000Y-128474800D02*
X137400000Y-127949700D01*
X137400000Y-129000000D02*
X137400000Y-128474800D01*
X111500000Y-133164500D02*
X112132000Y-133164500D01*
X112132000Y-133164500D02*
X113020700Y-134053200D01*
X113020700Y-134053200D02*
X113676500Y-134053200D01*
X113676500Y-134053200D02*
X113774700Y-133955000D01*
X137400000Y-127949700D02*
X136679400Y-127949700D01*
X136679400Y-127949700D02*
X135855000Y-127125300D01*
X132719400Y-129409000D02*
X135003100Y-127125300D01*
X135003100Y-127125300D02*
X135855000Y-127125300D01*
X132303900Y-129824500D02*
X132719400Y-129409000D01*
X132303900Y-129824500D02*
X131888400Y-130240000D01*
X135855000Y-126000000D02*
X135855000Y-127125300D01*
X111500000Y-133164500D02*
X111462700Y-133164500D01*
X111462700Y-133164500D02*
X110213400Y-134413800D01*
X110213400Y-134413800D02*
X110213400Y-137431400D01*
X110213400Y-137431400D02*
X111156700Y-138374700D01*
X111156700Y-138374700D02*
X111500000Y-138374700D01*
X111500000Y-133164500D02*
X111500000Y-131625300D01*
X114900000Y-133955000D02*
X113774700Y-133955000D01*
X111500000Y-140000000D02*
X111500000Y-138374700D01*
X116025300Y-133955000D02*
X119640400Y-133955000D01*
X114900000Y-133955000D02*
X116025300Y-133955000D01*
X126143300Y-134853700D02*
X126974400Y-134022600D01*
X125012000Y-133722400D02*
X125843100Y-132891300D01*
X126718500Y-133104200D02*
X126056000Y-133104200D01*
X126056000Y-133104200D02*
X125843100Y-132891300D01*
X131888400Y-130240000D02*
X131888300Y-130240000D01*
X131888300Y-130240000D02*
X129439200Y-130240000D01*
X129439200Y-130240000D02*
X127816700Y-131862500D01*
X127816700Y-131862500D02*
X127816700Y-132006000D01*
X127816700Y-132006000D02*
X126718500Y-133104200D01*
X126718500Y-133104200D02*
X126718500Y-133766700D01*
X126718500Y-133766700D02*
X126974400Y-134022600D01*
X111500000Y-130000000D02*
X111500000Y-131625300D01*
D25*
X115000000Y-140905000D02*
X113899700Y-140905000D01*
X113899700Y-140905000D02*
X113899700Y-138399700D01*
X113899700Y-138399700D02*
X111500000Y-136000000D01*
X111500000Y-126000000D02*
X111500000Y-127575300D01*
X115000000Y-128905000D02*
X113899700Y-128905000D01*
X113899700Y-128905000D02*
X112570000Y-127575300D01*
X112570000Y-127575300D02*
X111500000Y-127575300D01*
X130150000Y-140000000D02*
X130150000Y-138474700D01*
X130150000Y-138474700D02*
X129764300Y-138474700D01*
X129764300Y-138474700D02*
X127274700Y-135985100D01*
X130150000Y-140000000D02*
X133155300Y-140000000D01*
X133155300Y-140000000D02*
X133300000Y-140144700D01*
X133300000Y-140955000D02*
X133300000Y-140144700D01*
X116100300Y-126365000D02*
X116100300Y-129400000D01*
X116100300Y-129400000D02*
X115969900Y-129530400D01*
X115969900Y-129530400D02*
X115644300Y-129530400D01*
X115644300Y-129530400D02*
X113279700Y-131895000D01*
X113279700Y-131895000D02*
X113279700Y-133427900D01*
X125577600Y-127712000D02*
X123605300Y-125739700D01*
X123605300Y-125739700D02*
X116725600Y-125739700D01*
X116725600Y-125739700D02*
X116100300Y-126365000D01*
X115000000Y-126365000D02*
X116100300Y-126365000D01*
X115000000Y-125095000D02*
X113899700Y-125095000D01*
X113899700Y-125095000D02*
X113229300Y-124424600D01*
X113229300Y-124424600D02*
X110401300Y-124424600D01*
X110401300Y-124424600D02*
X109420200Y-125405700D01*
X109420200Y-125405700D02*
X109420200Y-135079800D01*
X109420200Y-135079800D02*
X107500000Y-137000000D01*
X113899700Y-137095000D02*
X113314200Y-136509500D01*
X113314200Y-136509500D02*
X112895600Y-136509500D01*
X115000000Y-137095000D02*
X113899700Y-137095000D01*
X139900000Y-137460000D02*
X139900000Y-136284700D01*
X139900000Y-136284700D02*
X139532600Y-136284700D01*
X139532600Y-136284700D02*
X138724700Y-135476800D01*
X138724700Y-135476800D02*
X138724700Y-134521200D01*
X138724700Y-134521200D02*
X134178200Y-129974700D01*
X134178200Y-129974700D02*
X133285100Y-129974700D01*
X111338800Y-134172700D02*
X112432600Y-134172700D01*
X112432600Y-134172700D02*
X114194000Y-135934100D01*
X114194000Y-135934100D02*
X115376200Y-135934100D01*
X115376200Y-135934100D02*
X116100300Y-136658200D01*
X116100300Y-136658200D02*
X116100300Y-138365000D01*
X115000000Y-138365000D02*
X116100300Y-138365000D01*
X139900000Y-140000000D02*
X139900000Y-138824700D01*
X133285100Y-132025300D02*
X136034400Y-134774600D01*
X136034400Y-134774600D02*
X136034400Y-135305500D01*
X136034400Y-135305500D02*
X136952300Y-136223400D01*
X136952300Y-136223400D02*
X137807600Y-136223400D01*
X137807600Y-136223400D02*
X138724700Y-137140500D01*
X138724700Y-137140500D02*
X138724700Y-138016800D01*
X138724700Y-138016800D02*
X139532600Y-138824700D01*
X139532600Y-138824700D02*
X139900000Y-138824700D01*
X132719400Y-132591000D02*
X133515200Y-133386800D01*
X137360000Y-137460000D02*
X133515200Y-133615200D01*
X133515200Y-133615200D02*
X133515200Y-133386800D01*
X131358000Y-132361000D02*
X130426000Y-131429000D01*
X130426000Y-131429000D02*
X129140300Y-131429000D01*
X132153700Y-133156700D02*
X131358000Y-132361000D01*
X131588000Y-133722400D02*
X130410000Y-132544400D01*
X130410000Y-132544400D02*
X130410000Y-132345900D01*
X121500300Y-140905000D02*
X121500300Y-137845900D01*
X121500300Y-137845900D02*
X121374800Y-137720400D01*
X121374800Y-137720400D02*
X119490300Y-137720400D01*
X119490300Y-137720400D02*
X119299700Y-137529800D01*
X119299700Y-137529800D02*
X119299700Y-136641100D01*
X119299700Y-136641100D02*
X121166300Y-134774500D01*
X121166300Y-134774500D02*
X121166300Y-134694500D01*
X121166300Y-134694500D02*
X122519300Y-133341500D01*
X122519300Y-133341500D02*
X122519300Y-132821000D01*
X122519300Y-132821000D02*
X122519300Y-132820900D01*
X120400000Y-140905000D02*
X121500300Y-140905000D01*
X123314900Y-132025300D02*
X122519300Y-132820900D01*
X120265700Y-130095300D02*
X123194300Y-130095300D01*
X123194300Y-130095300D02*
X123314900Y-129974700D01*
X120400000Y-127635000D02*
X120128500Y-127635000D01*
X120128500Y-127635000D02*
X119299600Y-128463900D01*
X119299600Y-128463900D02*
X119299600Y-129341900D01*
X119299600Y-129341900D02*
X120053000Y-130095300D01*
X120053000Y-130095300D02*
X120265700Y-130095300D01*
X119299700Y-139635000D02*
X118399100Y-138734400D01*
X118399100Y-138734400D02*
X118399100Y-136119400D01*
X118399100Y-136119400D02*
X120265700Y-134252800D01*
X120265700Y-134252800D02*
X120265700Y-130095300D01*
X120400000Y-139635000D02*
X119299700Y-139635000D01*
X119299700Y-138365000D02*
X118849400Y-137914700D01*
X118849400Y-137914700D02*
X118849400Y-136388100D01*
X118849400Y-136388100D02*
X120716000Y-134521500D01*
X120716000Y-134521500D02*
X120716000Y-134099300D01*
X120716000Y-134099300D02*
X120870100Y-133945200D01*
X120400000Y-126365000D02*
X119299700Y-126365000D01*
X118458700Y-127252000D02*
X119299700Y-126411000D01*
X119299700Y-126411000D02*
X119299700Y-126365000D01*
X120400000Y-138365000D02*
X119299700Y-138365000D01*
X121553600Y-129492800D02*
X122205200Y-129492800D01*
X122205200Y-129492800D02*
X123084800Y-128613200D01*
X123880600Y-129409000D02*
X123084800Y-128613200D01*
X125913200Y-140000000D02*
X123444700Y-140000000D01*
X123444700Y-140000000D02*
X123300000Y-140144700D01*
X126450000Y-140000000D02*
X125913200Y-140000000D01*
X125913200Y-140000000D02*
X125913200Y-136215200D01*
X126709000Y-135419400D02*
X125913200Y-136215200D01*
X123300000Y-140955000D02*
X123300000Y-140144700D01*
X145000000Y-141000000D02*
X143999700Y-141000000D01*
X131022400Y-134288000D02*
X135394600Y-138660200D01*
X135394600Y-138660200D02*
X137715600Y-138660200D01*
X137715600Y-138660200D02*
X138724600Y-139669200D01*
X138724600Y-139669200D02*
X138724600Y-140987100D01*
X138724600Y-140987100D02*
X138912900Y-141175400D01*
X138912900Y-141175400D02*
X143824300Y-141175400D01*
X143824300Y-141175400D02*
X143999700Y-141000000D01*
X145000000Y-137000000D02*
X146000700Y-138000700D01*
X146000700Y-138000700D02*
X146000700Y-141416000D01*
X146000700Y-141416000D02*
X145397400Y-142019300D01*
X145397400Y-142019300D02*
X137704000Y-142019300D01*
X137704000Y-142019300D02*
X134375400Y-138690700D01*
X134375400Y-138690700D02*
X134375400Y-138409800D01*
X134375400Y-138409800D02*
X131623500Y-135657900D01*
X131623500Y-135657900D02*
X131260800Y-135657900D01*
X131260800Y-135657900D02*
X131260800Y-135657800D01*
X131260800Y-135657800D02*
X130456700Y-134853700D01*
X130686800Y-136215200D02*
X131259200Y-136787600D01*
X131259200Y-136787600D02*
X131259200Y-137777000D01*
X129891000Y-135419400D02*
X130686800Y-136215200D01*
X129325300Y-135985100D02*
X128529700Y-135189400D01*
X128529700Y-135189400D02*
X128805500Y-134913600D01*
X128805500Y-134913600D02*
X128805500Y-134735400D01*
X128805500Y-134735400D02*
X129595700Y-133945200D01*
X123880600Y-132591000D02*
X127265200Y-129206400D01*
X127265200Y-129206400D02*
X128248300Y-129206400D01*
X145000000Y-125000000D02*
X143999700Y-125000000D01*
X143999700Y-125000000D02*
X142999700Y-126000000D01*
X142999700Y-126000000D02*
X141355000Y-126000000D01*
X125012000Y-128277600D02*
X123744000Y-127009600D01*
X123744000Y-127009600D02*
X119490200Y-127009600D01*
X119490200Y-127009600D02*
X119074500Y-127425300D01*
X119074500Y-127425300D02*
X119074500Y-127602100D01*
X119074500Y-127602100D02*
X116906900Y-129769700D01*
X116906900Y-129769700D02*
X116906900Y-131567000D01*
X114900000Y-132045000D02*
X115975300Y-132045000D01*
X116906900Y-131567000D02*
X116453300Y-131567000D01*
X116453300Y-131567000D02*
X115975300Y-132045000D01*
X120400000Y-128905000D02*
X121500300Y-128905000D01*
X124446300Y-128843300D02*
X123650600Y-128047600D01*
X123650600Y-128047600D02*
X122357700Y-128047600D01*
X122357700Y-128047600D02*
X121500300Y-128905000D01*
D26*
G36*
X109403401Y-137391602D02*
G01*
X109399481Y-137431400D01*
X109411523Y-137553653D01*
X109415121Y-137590188D01*
X109451776Y-137711023D01*
X109461438Y-137742873D01*
X109536651Y-137883589D01*
X109583372Y-137940518D01*
X109637873Y-138006928D01*
X109668783Y-138032295D01*
X110056411Y-138419924D01*
X110010498Y-138505820D01*
X109974188Y-138625518D01*
X109961928Y-138750000D01*
X109961928Y-141250000D01*
X109974188Y-141374482D01*
X110010498Y-141494180D01*
X110069463Y-141604494D01*
X110148815Y-141701185D01*
X110245506Y-141780537D01*
X110263210Y-141790000D01*
X108546336Y-141790000D01*
X108594495Y-141731318D01*
X108716138Y-141503741D01*
X108791045Y-141256805D01*
X108816338Y-141000000D01*
X108791045Y-140743195D01*
X108716138Y-140496259D01*
X108594495Y-140268682D01*
X108430792Y-140069208D01*
X108342352Y-139996628D01*
X108478303Y-139871227D01*
X108629473Y-139663629D01*
X108737238Y-139430528D01*
X108767910Y-139329400D01*
X108644224Y-139127000D01*
X107627000Y-139127000D01*
X107627000Y-139147000D01*
X107373000Y-139147000D01*
X107373000Y-139127000D01*
X107353000Y-139127000D01*
X107353000Y-138873000D01*
X107373000Y-138873000D01*
X107373000Y-138853000D01*
X107627000Y-138853000D01*
X107627000Y-138873000D01*
X108644224Y-138873000D01*
X108767910Y-138670600D01*
X108737238Y-138569472D01*
X108629473Y-138336371D01*
X108478303Y-138128773D01*
X108342352Y-138003372D01*
X108430792Y-137930792D01*
X108594495Y-137731318D01*
X108716138Y-137503741D01*
X108791045Y-137256805D01*
X108816338Y-137000000D01*
X108794682Y-136780120D01*
X109403401Y-136171401D01*
X109403401Y-137391602D01*
X109403401Y-137391602D01*
G37*
X109403401Y-137391602D02*
X109399481Y-137431400D01*
X109411523Y-137553653D01*
X109415121Y-137590188D01*
X109451776Y-137711023D01*
X109461438Y-137742873D01*
X109536651Y-137883589D01*
X109583372Y-137940518D01*
X109637873Y-138006928D01*
X109668783Y-138032295D01*
X110056411Y-138419924D01*
X110010498Y-138505820D01*
X109974188Y-138625518D01*
X109961928Y-138750000D01*
X109961928Y-141250000D01*
X109974188Y-141374482D01*
X110010498Y-141494180D01*
X110069463Y-141604494D01*
X110148815Y-141701185D01*
X110245506Y-141780537D01*
X110263210Y-141790000D01*
X108546336Y-141790000D01*
X108594495Y-141731318D01*
X108716138Y-141503741D01*
X108791045Y-141256805D01*
X108816338Y-141000000D01*
X108791045Y-140743195D01*
X108716138Y-140496259D01*
X108594495Y-140268682D01*
X108430792Y-140069208D01*
X108342352Y-139996628D01*
X108478303Y-139871227D01*
X108629473Y-139663629D01*
X108737238Y-139430528D01*
X108767910Y-139329400D01*
X108644224Y-139127000D01*
X107627000Y-139127000D01*
X107627000Y-139147000D01*
X107373000Y-139147000D01*
X107373000Y-139127000D01*
X107353000Y-139127000D01*
X107353000Y-138873000D01*
X107373000Y-138873000D01*
X107373000Y-138853000D01*
X107627000Y-138853000D01*
X107627000Y-138873000D01*
X108644224Y-138873000D01*
X108767910Y-138670600D01*
X108737238Y-138569472D01*
X108629473Y-138336371D01*
X108478303Y-138128773D01*
X108342352Y-138003372D01*
X108430792Y-137930792D01*
X108594495Y-137731318D01*
X108716138Y-137503741D01*
X108791045Y-137256805D01*
X108816338Y-137000000D01*
X108794682Y-136780120D01*
X109403401Y-136171401D01*
X109403401Y-137391602D01*
G36*
X136399898Y-141790000D02*
G01*
X134582939Y-141790000D01*
X134639502Y-141684180D01*
X134675812Y-141564482D01*
X134688072Y-141440000D01*
X134688072Y-140470000D01*
X134675812Y-140345518D01*
X134639502Y-140225820D01*
X134580537Y-140115506D01*
X134501185Y-140018815D01*
X134478259Y-140000000D01*
X134501185Y-139981185D01*
X134541707Y-139931808D01*
X136399898Y-141790000D01*
X136399898Y-141790000D01*
G37*
X136399898Y-141790000D02*
X134582939Y-141790000D01*
X134639502Y-141684180D01*
X134675812Y-141564482D01*
X134688072Y-141440000D01*
X134688072Y-140470000D01*
X134675812Y-140345518D01*
X134639502Y-140225820D01*
X134580537Y-140115506D01*
X134501185Y-140018815D01*
X134478259Y-140000000D01*
X134501185Y-139981185D01*
X134541707Y-139931808D01*
X136399898Y-141790000D01*
G36*
X128637872Y-138423074D02*
G01*
X128619463Y-138445506D01*
X128560498Y-138555820D01*
X128524188Y-138675518D01*
X128511928Y-138800000D01*
X128511928Y-141200000D01*
X128524188Y-141324482D01*
X128560498Y-141444180D01*
X128619463Y-141554494D01*
X128698815Y-141651185D01*
X128795506Y-141730537D01*
X128905820Y-141789502D01*
X128907462Y-141790000D01*
X127692538Y-141790000D01*
X127694180Y-141789502D01*
X127804494Y-141730537D01*
X127901185Y-141651185D01*
X127980537Y-141554494D01*
X128039502Y-141444180D01*
X128075812Y-141324482D01*
X128088072Y-141200000D01*
X128088072Y-138800000D01*
X128075812Y-138675518D01*
X128039502Y-138555820D01*
X127980537Y-138445506D01*
X127901185Y-138348815D01*
X127804494Y-138269463D01*
X127694180Y-138210498D01*
X127574482Y-138174188D01*
X127450000Y-138161928D01*
X126673200Y-138161928D01*
X126673200Y-137338966D01*
X126778982Y-137371055D01*
X126903464Y-137383315D01*
X127027946Y-137371055D01*
X127147644Y-137334745D01*
X127257958Y-137275780D01*
X127354649Y-137196428D01*
X127382938Y-137168139D01*
X128637872Y-138423074D01*
X128637872Y-138423074D01*
G37*
X128637872Y-138423074D02*
X128619463Y-138445506D01*
X128560498Y-138555820D01*
X128524188Y-138675518D01*
X128511928Y-138800000D01*
X128511928Y-141200000D01*
X128524188Y-141324482D01*
X128560498Y-141444180D01*
X128619463Y-141554494D01*
X128698815Y-141651185D01*
X128795506Y-141730537D01*
X128905820Y-141789502D01*
X128907462Y-141790000D01*
X127692538Y-141790000D01*
X127694180Y-141789502D01*
X127804494Y-141730537D01*
X127901185Y-141651185D01*
X127980537Y-141554494D01*
X128039502Y-141444180D01*
X128075812Y-141324482D01*
X128088072Y-141200000D01*
X128088072Y-138800000D01*
X128075812Y-138675518D01*
X128039502Y-138555820D01*
X127980537Y-138445506D01*
X127901185Y-138348815D01*
X127804494Y-138269463D01*
X127694180Y-138210498D01*
X127574482Y-138174188D01*
X127450000Y-138161928D01*
X126673200Y-138161928D01*
X126673200Y-137338966D01*
X126778982Y-137371055D01*
X126903464Y-137383315D01*
X127027946Y-137371055D01*
X127147644Y-137334745D01*
X127257958Y-137275780D01*
X127354649Y-137196428D01*
X127382938Y-137168139D01*
X128637872Y-138423074D01*
G36*
X117888098Y-135555601D02*
G01*
X117859100Y-135579399D01*
X117835302Y-135608397D01*
X117835301Y-135608398D01*
X117764126Y-135695124D01*
X117693554Y-135827154D01*
X117668668Y-135909197D01*
X117650098Y-135970414D01*
X117641816Y-136054503D01*
X117635424Y-136119400D01*
X117639101Y-136156732D01*
X117639100Y-138697077D01*
X117635424Y-138734400D01*
X117639100Y-138771722D01*
X117639100Y-138771732D01*
X117650097Y-138883385D01*
X117685463Y-138999973D01*
X117693554Y-139026646D01*
X117764126Y-139158676D01*
X117798205Y-139200201D01*
X117859099Y-139274401D01*
X117888102Y-139298203D01*
X118735901Y-140146003D01*
X118759699Y-140175001D01*
X118875424Y-140269974D01*
X119007453Y-140340546D01*
X119040910Y-140350695D01*
X119035498Y-140360820D01*
X118999188Y-140480518D01*
X118986928Y-140605000D01*
X118986928Y-141205000D01*
X118999188Y-141329482D01*
X119035498Y-141449180D01*
X119094463Y-141559494D01*
X119173815Y-141656185D01*
X119270506Y-141735537D01*
X119372397Y-141790000D01*
X116027603Y-141790000D01*
X116129494Y-141735537D01*
X116226185Y-141656185D01*
X116305537Y-141559494D01*
X116364502Y-141449180D01*
X116400812Y-141329482D01*
X116413072Y-141205000D01*
X116413072Y-140605000D01*
X116400812Y-140480518D01*
X116364502Y-140360820D01*
X116315957Y-140270000D01*
X116364502Y-140179180D01*
X116400812Y-140059482D01*
X116413072Y-139935000D01*
X116413072Y-139335000D01*
X116400812Y-139210518D01*
X116364502Y-139090820D01*
X116359090Y-139080695D01*
X116392547Y-139070546D01*
X116524576Y-138999974D01*
X116640301Y-138905001D01*
X116735274Y-138789276D01*
X116805846Y-138657247D01*
X116849303Y-138513986D01*
X116859565Y-138409799D01*
X116860300Y-138402333D01*
X116863977Y-138365000D01*
X116860300Y-138327667D01*
X116860300Y-136695522D01*
X116863976Y-136658199D01*
X116860300Y-136620876D01*
X116860300Y-136620867D01*
X116849303Y-136509214D01*
X116805846Y-136365953D01*
X116801796Y-136358376D01*
X116735274Y-136233923D01*
X116664099Y-136147197D01*
X116640301Y-136118199D01*
X116611304Y-136094402D01*
X115940003Y-135423102D01*
X115916201Y-135394099D01*
X115800476Y-135299126D01*
X115668447Y-135228554D01*
X115525186Y-135185097D01*
X115413533Y-135174100D01*
X115413522Y-135174100D01*
X115376200Y-135170424D01*
X115338878Y-135174100D01*
X114508802Y-135174100D01*
X114412774Y-135078072D01*
X115650000Y-135078072D01*
X115774482Y-135065812D01*
X115894180Y-135029502D01*
X116004494Y-134970537D01*
X116101185Y-134891185D01*
X116180537Y-134794494D01*
X116196302Y-134765000D01*
X118678699Y-134765000D01*
X117888098Y-135555601D01*
X117888098Y-135555601D01*
G37*
X117888098Y-135555601D02*
X117859100Y-135579399D01*
X117835302Y-135608397D01*
X117835301Y-135608398D01*
X117764126Y-135695124D01*
X117693554Y-135827154D01*
X117668668Y-135909197D01*
X117650098Y-135970414D01*
X117641816Y-136054503D01*
X117635424Y-136119400D01*
X117639101Y-136156732D01*
X117639100Y-138697077D01*
X117635424Y-138734400D01*
X117639100Y-138771722D01*
X117639100Y-138771732D01*
X117650097Y-138883385D01*
X117685463Y-138999973D01*
X117693554Y-139026646D01*
X117764126Y-139158676D01*
X117798205Y-139200201D01*
X117859099Y-139274401D01*
X117888102Y-139298203D01*
X118735901Y-140146003D01*
X118759699Y-140175001D01*
X118875424Y-140269974D01*
X119007453Y-140340546D01*
X119040910Y-140350695D01*
X119035498Y-140360820D01*
X118999188Y-140480518D01*
X118986928Y-140605000D01*
X118986928Y-141205000D01*
X118999188Y-141329482D01*
X119035498Y-141449180D01*
X119094463Y-141559494D01*
X119173815Y-141656185D01*
X119270506Y-141735537D01*
X119372397Y-141790000D01*
X116027603Y-141790000D01*
X116129494Y-141735537D01*
X116226185Y-141656185D01*
X116305537Y-141559494D01*
X116364502Y-141449180D01*
X116400812Y-141329482D01*
X116413072Y-141205000D01*
X116413072Y-140605000D01*
X116400812Y-140480518D01*
X116364502Y-140360820D01*
X116315957Y-140270000D01*
X116364502Y-140179180D01*
X116400812Y-140059482D01*
X116413072Y-139935000D01*
X116413072Y-139335000D01*
X116400812Y-139210518D01*
X116364502Y-139090820D01*
X116359090Y-139080695D01*
X116392547Y-139070546D01*
X116524576Y-138999974D01*
X116640301Y-138905001D01*
X116735274Y-138789276D01*
X116805846Y-138657247D01*
X116849303Y-138513986D01*
X116859565Y-138409799D01*
X116860300Y-138402333D01*
X116863977Y-138365000D01*
X116860300Y-138327667D01*
X116860300Y-136695522D01*
X116863976Y-136658199D01*
X116860300Y-136620876D01*
X116860300Y-136620867D01*
X116849303Y-136509214D01*
X116805846Y-136365953D01*
X116801796Y-136358376D01*
X116735274Y-136233923D01*
X116664099Y-136147197D01*
X116640301Y-136118199D01*
X116611304Y-136094402D01*
X115940003Y-135423102D01*
X115916201Y-135394099D01*
X115800476Y-135299126D01*
X115668447Y-135228554D01*
X115525186Y-135185097D01*
X115413533Y-135174100D01*
X115413522Y-135174100D01*
X115376200Y-135170424D01*
X115338878Y-135174100D01*
X114508802Y-135174100D01*
X114412774Y-135078072D01*
X115650000Y-135078072D01*
X115774482Y-135065812D01*
X115894180Y-135029502D01*
X116004494Y-134970537D01*
X116101185Y-134891185D01*
X116180537Y-134794494D01*
X116196302Y-134765000D01*
X118678699Y-134765000D01*
X117888098Y-135555601D01*
G36*
X121924188Y-141564482D02*
G01*
X121960498Y-141684180D01*
X122017061Y-141790000D01*
X121427603Y-141790000D01*
X121529494Y-141735537D01*
X121626056Y-141656291D01*
X121649286Y-141654003D01*
X121792547Y-141610546D01*
X121921914Y-141541397D01*
X121924188Y-141564482D01*
X121924188Y-141564482D01*
G37*
X121924188Y-141564482D02*
X121960498Y-141684180D01*
X122017061Y-141790000D01*
X121427603Y-141790000D01*
X121529494Y-141735537D01*
X121626056Y-141656291D01*
X121649286Y-141654003D01*
X121792547Y-141610546D01*
X121921914Y-141541397D01*
X121924188Y-141564482D01*
G36*
X143962631Y-126199074D02*
G01*
X143905505Y-126268682D01*
X143783862Y-126496259D01*
X143708955Y-126743195D01*
X143683662Y-127000000D01*
X143708955Y-127256805D01*
X143783862Y-127503741D01*
X143905505Y-127731318D01*
X144069208Y-127930792D01*
X144153539Y-128000000D01*
X144069208Y-128069208D01*
X143905505Y-128268682D01*
X143783862Y-128496259D01*
X143708955Y-128743195D01*
X143683662Y-129000000D01*
X143708955Y-129256805D01*
X143783862Y-129503741D01*
X143905505Y-129731318D01*
X144069208Y-129930792D01*
X144157648Y-130003372D01*
X144021697Y-130128773D01*
X143870527Y-130336371D01*
X143762762Y-130569472D01*
X143732090Y-130670600D01*
X143855776Y-130873000D01*
X144873000Y-130873000D01*
X144873000Y-130853000D01*
X145127000Y-130853000D01*
X145127000Y-130873000D01*
X145147000Y-130873000D01*
X145147000Y-131127000D01*
X145127000Y-131127000D01*
X145127000Y-131147000D01*
X144873000Y-131147000D01*
X144873000Y-131127000D01*
X143855776Y-131127000D01*
X143732090Y-131329400D01*
X143762762Y-131430528D01*
X143870527Y-131663629D01*
X144021697Y-131871227D01*
X144157648Y-131996628D01*
X144069208Y-132069208D01*
X143905505Y-132268682D01*
X143783862Y-132496259D01*
X143708955Y-132743195D01*
X143683662Y-133000000D01*
X143708955Y-133256805D01*
X143783862Y-133503741D01*
X143905505Y-133731318D01*
X144069208Y-133930792D01*
X144153539Y-134000000D01*
X144069208Y-134069208D01*
X143905505Y-134268682D01*
X143783862Y-134496259D01*
X143708955Y-134743195D01*
X143683662Y-135000000D01*
X143708955Y-135256805D01*
X143783862Y-135503741D01*
X143905505Y-135731318D01*
X144069208Y-135930792D01*
X144153539Y-136000000D01*
X144069208Y-136069208D01*
X143905505Y-136268682D01*
X143783862Y-136496259D01*
X143708955Y-136743195D01*
X143683662Y-137000000D01*
X143708955Y-137256805D01*
X143783862Y-137503741D01*
X143905505Y-137731318D01*
X144069208Y-137930792D01*
X144153539Y-138000000D01*
X144069208Y-138069208D01*
X143905505Y-138268682D01*
X143783862Y-138496259D01*
X143708955Y-138743195D01*
X143683662Y-139000000D01*
X143708955Y-139256805D01*
X143783862Y-139503741D01*
X143905505Y-139731318D01*
X144069208Y-139930792D01*
X144153539Y-140000000D01*
X144069208Y-140069208D01*
X143926113Y-140243571D01*
X143850714Y-140250997D01*
X143707453Y-140294454D01*
X143575424Y-140365026D01*
X143514043Y-140415400D01*
X141388072Y-140415400D01*
X141388072Y-139150000D01*
X141375812Y-139025518D01*
X141339502Y-138905820D01*
X141280537Y-138795506D01*
X141201185Y-138698815D01*
X141104494Y-138619463D01*
X140994180Y-138560498D01*
X140925313Y-138539607D01*
X140955134Y-138515134D01*
X141140706Y-138289014D01*
X141278599Y-138031034D01*
X141363513Y-137751111D01*
X141392185Y-137460000D01*
X141363513Y-137168889D01*
X141278599Y-136888966D01*
X141140706Y-136630986D01*
X140955134Y-136404866D01*
X140729014Y-136219294D01*
X140674209Y-136190000D01*
X140729014Y-136160706D01*
X140955134Y-135975134D01*
X141140706Y-135749014D01*
X141278599Y-135491034D01*
X141363513Y-135211111D01*
X141392185Y-134920000D01*
X141363513Y-134628889D01*
X141278599Y-134348966D01*
X141140706Y-134090986D01*
X140955134Y-133864866D01*
X140729014Y-133679294D01*
X140471034Y-133541401D01*
X140191111Y-133456487D01*
X139972950Y-133435000D01*
X139827050Y-133435000D01*
X139608889Y-133456487D01*
X139328966Y-133541401D01*
X139070986Y-133679294D01*
X139008707Y-133730405D01*
X137527002Y-132248700D01*
X137527002Y-132145086D01*
X137729401Y-132267915D01*
X137970430Y-132179289D01*
X138165562Y-132060000D01*
X139561928Y-132060000D01*
X139574188Y-132184482D01*
X139610498Y-132304180D01*
X139669463Y-132414494D01*
X139748815Y-132511185D01*
X139845506Y-132590537D01*
X139955820Y-132649502D01*
X140075518Y-132685812D01*
X140200000Y-132698072D01*
X140614250Y-132695000D01*
X140773000Y-132536250D01*
X140773000Y-131507000D01*
X141027000Y-131507000D01*
X141027000Y-132536250D01*
X141185750Y-132695000D01*
X141600000Y-132698072D01*
X141724482Y-132685812D01*
X141844180Y-132649502D01*
X141954494Y-132590537D01*
X142051185Y-132511185D01*
X142130537Y-132414494D01*
X142189502Y-132304180D01*
X142225812Y-132184482D01*
X142238072Y-132060000D01*
X142235000Y-131665750D01*
X142076250Y-131507000D01*
X141027000Y-131507000D01*
X140773000Y-131507000D01*
X139723750Y-131507000D01*
X139565000Y-131665750D01*
X139561928Y-132060000D01*
X138165562Y-132060000D01*
X138189537Y-132045344D01*
X138378303Y-131871227D01*
X138529473Y-131663629D01*
X138637238Y-131430528D01*
X138667910Y-131329400D01*
X138544224Y-131127000D01*
X137527000Y-131127000D01*
X137527000Y-131147000D01*
X137273000Y-131147000D01*
X137273000Y-131127000D01*
X137253000Y-131127000D01*
X137253000Y-130873000D01*
X137273000Y-130873000D01*
X137273000Y-130853000D01*
X137527000Y-130853000D01*
X137527000Y-130873000D01*
X138544224Y-130873000D01*
X138649943Y-130700000D01*
X139561928Y-130700000D01*
X139565000Y-131094250D01*
X139723750Y-131253000D01*
X140773000Y-131253000D01*
X140773000Y-130223750D01*
X141027000Y-130223750D01*
X141027000Y-131253000D01*
X142076250Y-131253000D01*
X142235000Y-131094250D01*
X142238072Y-130700000D01*
X142225812Y-130575518D01*
X142189502Y-130455820D01*
X142130537Y-130345506D01*
X142051185Y-130248815D01*
X141954494Y-130169463D01*
X141844180Y-130110498D01*
X141724482Y-130074188D01*
X141600000Y-130061928D01*
X141185750Y-130065000D01*
X141027000Y-130223750D01*
X140773000Y-130223750D01*
X140614250Y-130065000D01*
X140200000Y-130061928D01*
X140075518Y-130074188D01*
X139955820Y-130110498D01*
X139845506Y-130169463D01*
X139748815Y-130248815D01*
X139669463Y-130345506D01*
X139610498Y-130455820D01*
X139574188Y-130575518D01*
X139561928Y-130700000D01*
X138649943Y-130700000D01*
X138667910Y-130670600D01*
X138637238Y-130569472D01*
X138529473Y-130336371D01*
X138432441Y-130203119D01*
X138526185Y-130126185D01*
X138605537Y-130029494D01*
X138664502Y-129919180D01*
X138700812Y-129799482D01*
X138713072Y-129675000D01*
X138713072Y-128967200D01*
X139026388Y-128967200D01*
X139223800Y-129164612D01*
X139249172Y-129195528D01*
X139327748Y-129260013D01*
X139372510Y-129296749D01*
X139422093Y-129323251D01*
X139513227Y-129371963D01*
X139570734Y-129389408D01*
X139574188Y-129424482D01*
X139610498Y-129544180D01*
X139669463Y-129654494D01*
X139748815Y-129751185D01*
X139845506Y-129830537D01*
X139955820Y-129889502D01*
X140075518Y-129925812D01*
X140200000Y-129938072D01*
X141600000Y-129938072D01*
X141724482Y-129925812D01*
X141844180Y-129889502D01*
X141954494Y-129830537D01*
X142051185Y-129751185D01*
X142130537Y-129654494D01*
X142189502Y-129544180D01*
X142225812Y-129424482D01*
X142238072Y-129300000D01*
X142238072Y-127940000D01*
X142225812Y-127815518D01*
X142189502Y-127695820D01*
X142130537Y-127585506D01*
X142051185Y-127488815D01*
X141954494Y-127409463D01*
X141902888Y-127381878D01*
X141964482Y-127375812D01*
X142084180Y-127339502D01*
X142194494Y-127280537D01*
X142291185Y-127201185D01*
X142370537Y-127104494D01*
X142429502Y-126994180D01*
X142465812Y-126874482D01*
X142477087Y-126760000D01*
X142962378Y-126760000D01*
X142999700Y-126763676D01*
X143037022Y-126760000D01*
X143037033Y-126760000D01*
X143148686Y-126749003D01*
X143291947Y-126705546D01*
X143423976Y-126634974D01*
X143539701Y-126540001D01*
X143563504Y-126510998D01*
X143914735Y-126159767D01*
X143962631Y-126199074D01*
X143962631Y-126199074D01*
G37*
X143962631Y-126199074D02*
X143905505Y-126268682D01*
X143783862Y-126496259D01*
X143708955Y-126743195D01*
X143683662Y-127000000D01*
X143708955Y-127256805D01*
X143783862Y-127503741D01*
X143905505Y-127731318D01*
X144069208Y-127930792D01*
X144153539Y-128000000D01*
X144069208Y-128069208D01*
X143905505Y-128268682D01*
X143783862Y-128496259D01*
X143708955Y-128743195D01*
X143683662Y-129000000D01*
X143708955Y-129256805D01*
X143783862Y-129503741D01*
X143905505Y-129731318D01*
X144069208Y-129930792D01*
X144157648Y-130003372D01*
X144021697Y-130128773D01*
X143870527Y-130336371D01*
X143762762Y-130569472D01*
X143732090Y-130670600D01*
X143855776Y-130873000D01*
X144873000Y-130873000D01*
X144873000Y-130853000D01*
X145127000Y-130853000D01*
X145127000Y-130873000D01*
X145147000Y-130873000D01*
X145147000Y-131127000D01*
X145127000Y-131127000D01*
X145127000Y-131147000D01*
X144873000Y-131147000D01*
X144873000Y-131127000D01*
X143855776Y-131127000D01*
X143732090Y-131329400D01*
X143762762Y-131430528D01*
X143870527Y-131663629D01*
X144021697Y-131871227D01*
X144157648Y-131996628D01*
X144069208Y-132069208D01*
X143905505Y-132268682D01*
X143783862Y-132496259D01*
X143708955Y-132743195D01*
X143683662Y-133000000D01*
X143708955Y-133256805D01*
X143783862Y-133503741D01*
X143905505Y-133731318D01*
X144069208Y-133930792D01*
X144153539Y-134000000D01*
X144069208Y-134069208D01*
X143905505Y-134268682D01*
X143783862Y-134496259D01*
X143708955Y-134743195D01*
X143683662Y-135000000D01*
X143708955Y-135256805D01*
X143783862Y-135503741D01*
X143905505Y-135731318D01*
X144069208Y-135930792D01*
X144153539Y-136000000D01*
X144069208Y-136069208D01*
X143905505Y-136268682D01*
X143783862Y-136496259D01*
X143708955Y-136743195D01*
X143683662Y-137000000D01*
X143708955Y-137256805D01*
X143783862Y-137503741D01*
X143905505Y-137731318D01*
X144069208Y-137930792D01*
X144153539Y-138000000D01*
X144069208Y-138069208D01*
X143905505Y-138268682D01*
X143783862Y-138496259D01*
X143708955Y-138743195D01*
X143683662Y-139000000D01*
X143708955Y-139256805D01*
X143783862Y-139503741D01*
X143905505Y-139731318D01*
X144069208Y-139930792D01*
X144153539Y-140000000D01*
X144069208Y-140069208D01*
X143926113Y-140243571D01*
X143850714Y-140250997D01*
X143707453Y-140294454D01*
X143575424Y-140365026D01*
X143514043Y-140415400D01*
X141388072Y-140415400D01*
X141388072Y-139150000D01*
X141375812Y-139025518D01*
X141339502Y-138905820D01*
X141280537Y-138795506D01*
X141201185Y-138698815D01*
X141104494Y-138619463D01*
X140994180Y-138560498D01*
X140925313Y-138539607D01*
X140955134Y-138515134D01*
X141140706Y-138289014D01*
X141278599Y-138031034D01*
X141363513Y-137751111D01*
X141392185Y-137460000D01*
X141363513Y-137168889D01*
X141278599Y-136888966D01*
X141140706Y-136630986D01*
X140955134Y-136404866D01*
X140729014Y-136219294D01*
X140674209Y-136190000D01*
X140729014Y-136160706D01*
X140955134Y-135975134D01*
X141140706Y-135749014D01*
X141278599Y-135491034D01*
X141363513Y-135211111D01*
X141392185Y-134920000D01*
X141363513Y-134628889D01*
X141278599Y-134348966D01*
X141140706Y-134090986D01*
X140955134Y-133864866D01*
X140729014Y-133679294D01*
X140471034Y-133541401D01*
X140191111Y-133456487D01*
X139972950Y-133435000D01*
X139827050Y-133435000D01*
X139608889Y-133456487D01*
X139328966Y-133541401D01*
X139070986Y-133679294D01*
X139008707Y-133730405D01*
X137527002Y-132248700D01*
X137527002Y-132145086D01*
X137729401Y-132267915D01*
X137970430Y-132179289D01*
X138165562Y-132060000D01*
X139561928Y-132060000D01*
X139574188Y-132184482D01*
X139610498Y-132304180D01*
X139669463Y-132414494D01*
X139748815Y-132511185D01*
X139845506Y-132590537D01*
X139955820Y-132649502D01*
X140075518Y-132685812D01*
X140200000Y-132698072D01*
X140614250Y-132695000D01*
X140773000Y-132536250D01*
X140773000Y-131507000D01*
X141027000Y-131507000D01*
X141027000Y-132536250D01*
X141185750Y-132695000D01*
X141600000Y-132698072D01*
X141724482Y-132685812D01*
X141844180Y-132649502D01*
X141954494Y-132590537D01*
X142051185Y-132511185D01*
X142130537Y-132414494D01*
X142189502Y-132304180D01*
X142225812Y-132184482D01*
X142238072Y-132060000D01*
X142235000Y-131665750D01*
X142076250Y-131507000D01*
X141027000Y-131507000D01*
X140773000Y-131507000D01*
X139723750Y-131507000D01*
X139565000Y-131665750D01*
X139561928Y-132060000D01*
X138165562Y-132060000D01*
X138189537Y-132045344D01*
X138378303Y-131871227D01*
X138529473Y-131663629D01*
X138637238Y-131430528D01*
X138667910Y-131329400D01*
X138544224Y-131127000D01*
X137527000Y-131127000D01*
X137527000Y-131147000D01*
X137273000Y-131147000D01*
X137273000Y-131127000D01*
X137253000Y-131127000D01*
X137253000Y-130873000D01*
X137273000Y-130873000D01*
X137273000Y-130853000D01*
X137527000Y-130853000D01*
X137527000Y-130873000D01*
X138544224Y-130873000D01*
X138649943Y-130700000D01*
X139561928Y-130700000D01*
X139565000Y-131094250D01*
X139723750Y-131253000D01*
X140773000Y-131253000D01*
X140773000Y-130223750D01*
X141027000Y-130223750D01*
X141027000Y-131253000D01*
X142076250Y-131253000D01*
X142235000Y-131094250D01*
X142238072Y-130700000D01*
X142225812Y-130575518D01*
X142189502Y-130455820D01*
X142130537Y-130345506D01*
X142051185Y-130248815D01*
X141954494Y-130169463D01*
X141844180Y-130110498D01*
X141724482Y-130074188D01*
X141600000Y-130061928D01*
X141185750Y-130065000D01*
X141027000Y-130223750D01*
X140773000Y-130223750D01*
X140614250Y-130065000D01*
X140200000Y-130061928D01*
X140075518Y-130074188D01*
X139955820Y-130110498D01*
X139845506Y-130169463D01*
X139748815Y-130248815D01*
X139669463Y-130345506D01*
X139610498Y-130455820D01*
X139574188Y-130575518D01*
X139561928Y-130700000D01*
X138649943Y-130700000D01*
X138667910Y-130670600D01*
X138637238Y-130569472D01*
X138529473Y-130336371D01*
X138432441Y-130203119D01*
X138526185Y-130126185D01*
X138605537Y-130029494D01*
X138664502Y-129919180D01*
X138700812Y-129799482D01*
X138713072Y-129675000D01*
X138713072Y-128967200D01*
X139026388Y-128967200D01*
X139223800Y-129164612D01*
X139249172Y-129195528D01*
X139327748Y-129260013D01*
X139372510Y-129296749D01*
X139422093Y-129323251D01*
X139513227Y-129371963D01*
X139570734Y-129389408D01*
X139574188Y-129424482D01*
X139610498Y-129544180D01*
X139669463Y-129654494D01*
X139748815Y-129751185D01*
X139845506Y-129830537D01*
X139955820Y-129889502D01*
X140075518Y-129925812D01*
X140200000Y-129938072D01*
X141600000Y-129938072D01*
X141724482Y-129925812D01*
X141844180Y-129889502D01*
X141954494Y-129830537D01*
X142051185Y-129751185D01*
X142130537Y-129654494D01*
X142189502Y-129544180D01*
X142225812Y-129424482D01*
X142238072Y-129300000D01*
X142238072Y-127940000D01*
X142225812Y-127815518D01*
X142189502Y-127695820D01*
X142130537Y-127585506D01*
X142051185Y-127488815D01*
X141954494Y-127409463D01*
X141902888Y-127381878D01*
X141964482Y-127375812D01*
X142084180Y-127339502D01*
X142194494Y-127280537D01*
X142291185Y-127201185D01*
X142370537Y-127104494D01*
X142429502Y-126994180D01*
X142465812Y-126874482D01*
X142477087Y-126760000D01*
X142962378Y-126760000D01*
X142999700Y-126763676D01*
X143037022Y-126760000D01*
X143037033Y-126760000D01*
X143148686Y-126749003D01*
X143291947Y-126705546D01*
X143423976Y-126634974D01*
X143539701Y-126540001D01*
X143563504Y-126510998D01*
X143914735Y-126159767D01*
X143962631Y-126199074D01*
G36*
X123154858Y-133881667D02*
G01*
X123155905Y-133882227D01*
X123229514Y-133969318D01*
X123359737Y-133969318D01*
X123384870Y-133976942D01*
X123509352Y-133989202D01*
X123625145Y-133977798D01*
X123613741Y-134093592D01*
X123626001Y-134218074D01*
X123633626Y-134243210D01*
X123633626Y-134373430D01*
X123720716Y-134447038D01*
X123721276Y-134448086D01*
X123800628Y-134544777D01*
X124189537Y-134933686D01*
X124286228Y-135013038D01*
X124287277Y-135013599D01*
X124360885Y-135100689D01*
X124491107Y-135100689D01*
X124516240Y-135108313D01*
X124640722Y-135120573D01*
X124756516Y-135109169D01*
X124745112Y-135224963D01*
X124757372Y-135349445D01*
X124764997Y-135374581D01*
X124764997Y-135504801D01*
X124852087Y-135578409D01*
X124852647Y-135579457D01*
X124931999Y-135676148D01*
X125200940Y-135945089D01*
X125186573Y-135992453D01*
X125164198Y-136066214D01*
X125157353Y-136135713D01*
X125149524Y-136215200D01*
X125153201Y-136252532D01*
X125153200Y-138238624D01*
X125095506Y-138269463D01*
X124998815Y-138348815D01*
X124919463Y-138445506D01*
X124860498Y-138555820D01*
X124824188Y-138675518D01*
X124811928Y-138800000D01*
X124811928Y-139240000D01*
X124594250Y-139240000D01*
X124526250Y-139172000D01*
X123427000Y-139172000D01*
X123427000Y-139192000D01*
X123173000Y-139192000D01*
X123173000Y-139172000D01*
X123153000Y-139172000D01*
X123153000Y-138918000D01*
X123173000Y-138918000D01*
X123173000Y-138083750D01*
X123427000Y-138083750D01*
X123427000Y-138918000D01*
X124526250Y-138918000D01*
X124685000Y-138759250D01*
X124688072Y-138560000D01*
X124675812Y-138435518D01*
X124639502Y-138315820D01*
X124580537Y-138205506D01*
X124501185Y-138108815D01*
X124404494Y-138029463D01*
X124294180Y-137970498D01*
X124174482Y-137934188D01*
X124050000Y-137921928D01*
X123585750Y-137925000D01*
X123427000Y-138083750D01*
X123173000Y-138083750D01*
X123014250Y-137925000D01*
X122550000Y-137921928D01*
X122425518Y-137934188D01*
X122305820Y-137970498D01*
X122260300Y-137994829D01*
X122260300Y-137883223D01*
X122263976Y-137845900D01*
X122260300Y-137808578D01*
X122260300Y-137808567D01*
X122249303Y-137696914D01*
X122205846Y-137553653D01*
X122135274Y-137421624D01*
X122040301Y-137305899D01*
X122011297Y-137282096D01*
X121938604Y-137209403D01*
X121914801Y-137180399D01*
X121810000Y-137094391D01*
X121810000Y-136967998D01*
X121651252Y-136967998D01*
X121810000Y-136809250D01*
X121813072Y-136795000D01*
X121800812Y-136670518D01*
X121764502Y-136550820D01*
X121705537Y-136440506D01*
X121626185Y-136343815D01*
X121529494Y-136264463D01*
X121419180Y-136205498D01*
X121299482Y-136169188D01*
X121175000Y-136156928D01*
X120856675Y-136158927D01*
X121677304Y-135338298D01*
X121706301Y-135314501D01*
X121742409Y-135270503D01*
X121801274Y-135198777D01*
X121871846Y-135066747D01*
X121873108Y-135062586D01*
X121873149Y-135062452D01*
X123030304Y-133905298D01*
X123059301Y-133881501D01*
X123097677Y-133834740D01*
X123154858Y-133881667D01*
X123154858Y-133881667D01*
G37*
X123154858Y-133881667D02*
X123155905Y-133882227D01*
X123229514Y-133969318D01*
X123359737Y-133969318D01*
X123384870Y-133976942D01*
X123509352Y-133989202D01*
X123625145Y-133977798D01*
X123613741Y-134093592D01*
X123626001Y-134218074D01*
X123633626Y-134243210D01*
X123633626Y-134373430D01*
X123720716Y-134447038D01*
X123721276Y-134448086D01*
X123800628Y-134544777D01*
X124189537Y-134933686D01*
X124286228Y-135013038D01*
X124287277Y-135013599D01*
X124360885Y-135100689D01*
X124491107Y-135100689D01*
X124516240Y-135108313D01*
X124640722Y-135120573D01*
X124756516Y-135109169D01*
X124745112Y-135224963D01*
X124757372Y-135349445D01*
X124764997Y-135374581D01*
X124764997Y-135504801D01*
X124852087Y-135578409D01*
X124852647Y-135579457D01*
X124931999Y-135676148D01*
X125200940Y-135945089D01*
X125186573Y-135992453D01*
X125164198Y-136066214D01*
X125157353Y-136135713D01*
X125149524Y-136215200D01*
X125153201Y-136252532D01*
X125153200Y-138238624D01*
X125095506Y-138269463D01*
X124998815Y-138348815D01*
X124919463Y-138445506D01*
X124860498Y-138555820D01*
X124824188Y-138675518D01*
X124811928Y-138800000D01*
X124811928Y-139240000D01*
X124594250Y-139240000D01*
X124526250Y-139172000D01*
X123427000Y-139172000D01*
X123427000Y-139192000D01*
X123173000Y-139192000D01*
X123173000Y-139172000D01*
X123153000Y-139172000D01*
X123153000Y-138918000D01*
X123173000Y-138918000D01*
X123173000Y-138083750D01*
X123427000Y-138083750D01*
X123427000Y-138918000D01*
X124526250Y-138918000D01*
X124685000Y-138759250D01*
X124688072Y-138560000D01*
X124675812Y-138435518D01*
X124639502Y-138315820D01*
X124580537Y-138205506D01*
X124501185Y-138108815D01*
X124404494Y-138029463D01*
X124294180Y-137970498D01*
X124174482Y-137934188D01*
X124050000Y-137921928D01*
X123585750Y-137925000D01*
X123427000Y-138083750D01*
X123173000Y-138083750D01*
X123014250Y-137925000D01*
X122550000Y-137921928D01*
X122425518Y-137934188D01*
X122305820Y-137970498D01*
X122260300Y-137994829D01*
X122260300Y-137883223D01*
X122263976Y-137845900D01*
X122260300Y-137808578D01*
X122260300Y-137808567D01*
X122249303Y-137696914D01*
X122205846Y-137553653D01*
X122135274Y-137421624D01*
X122040301Y-137305899D01*
X122011297Y-137282096D01*
X121938604Y-137209403D01*
X121914801Y-137180399D01*
X121810000Y-137094391D01*
X121810000Y-136967998D01*
X121651252Y-136967998D01*
X121810000Y-136809250D01*
X121813072Y-136795000D01*
X121800812Y-136670518D01*
X121764502Y-136550820D01*
X121705537Y-136440506D01*
X121626185Y-136343815D01*
X121529494Y-136264463D01*
X121419180Y-136205498D01*
X121299482Y-136169188D01*
X121175000Y-136156928D01*
X120856675Y-136158927D01*
X121677304Y-135338298D01*
X121706301Y-135314501D01*
X121742409Y-135270503D01*
X121801274Y-135198777D01*
X121871846Y-135066747D01*
X121873108Y-135062586D01*
X121873149Y-135062452D01*
X123030304Y-133905298D01*
X123059301Y-133881501D01*
X123097677Y-133834740D01*
X123154858Y-133881667D01*
G36*
X131924188Y-138435518D02*
G01*
X131911928Y-138560000D01*
X131915000Y-138759250D01*
X132073750Y-138918000D01*
X133173000Y-138918000D01*
X133173000Y-138898000D01*
X133427000Y-138898000D01*
X133427000Y-138918000D01*
X133447000Y-138918000D01*
X133447000Y-139172000D01*
X133427000Y-139172000D01*
X133427000Y-139192000D01*
X133173000Y-139192000D01*
X133173000Y-139172000D01*
X132073750Y-139172000D01*
X132005750Y-139240000D01*
X131788072Y-139240000D01*
X131788072Y-138800000D01*
X131775812Y-138675518D01*
X131739502Y-138555820D01*
X131725573Y-138529760D01*
X131823355Y-138464424D01*
X131946624Y-138341155D01*
X131957958Y-138324192D01*
X131924188Y-138435518D01*
X131924188Y-138435518D01*
G37*
X131924188Y-138435518D02*
X131911928Y-138560000D01*
X131915000Y-138759250D01*
X132073750Y-138918000D01*
X133173000Y-138918000D01*
X133173000Y-138898000D01*
X133427000Y-138898000D01*
X133427000Y-138918000D01*
X133447000Y-138918000D01*
X133447000Y-139172000D01*
X133427000Y-139172000D01*
X133427000Y-139192000D01*
X133173000Y-139192000D01*
X133173000Y-139172000D01*
X132073750Y-139172000D01*
X132005750Y-139240000D01*
X131788072Y-139240000D01*
X131788072Y-138800000D01*
X131775812Y-138675518D01*
X131739502Y-138555820D01*
X131725573Y-138529760D01*
X131823355Y-138464424D01*
X131946624Y-138341155D01*
X131957958Y-138324192D01*
X131924188Y-138435518D01*
G36*
X135919203Y-137094005D02*
G01*
X135896487Y-137168889D01*
X135867815Y-137460000D01*
X135896487Y-137751111D01*
X135941713Y-137900200D01*
X135709402Y-137900200D01*
X132576675Y-134767474D01*
X132799372Y-134544777D01*
X132878724Y-134448086D01*
X132878979Y-134447608D01*
X132879457Y-134447353D01*
X132976148Y-134368001D01*
X133084674Y-134259475D01*
X135919203Y-137094005D01*
X135919203Y-137094005D01*
G37*
X135919203Y-137094005D02*
X135896487Y-137168889D01*
X135867815Y-137460000D01*
X135896487Y-137751111D01*
X135941713Y-137900200D01*
X135709402Y-137900200D01*
X132576675Y-134767474D01*
X132799372Y-134544777D01*
X132878724Y-134448086D01*
X132878979Y-134447608D01*
X132879457Y-134447353D01*
X132976148Y-134368001D01*
X133084674Y-134259475D01*
X135919203Y-137094005D01*
G36*
X120527000Y-136960400D02*
G01*
X120273000Y-136960400D01*
X120273000Y-136948000D01*
X120527000Y-136948000D01*
X120527000Y-136960400D01*
X120527000Y-136960400D01*
G37*
X120527000Y-136960400D02*
X120273000Y-136960400D01*
X120273000Y-136948000D01*
X120527000Y-136948000D01*
X120527000Y-136960400D01*
G36*
X137487000Y-134793000D02*
G01*
X137507000Y-134793000D01*
X137507000Y-135047000D01*
X137487000Y-135047000D01*
X137487000Y-135067000D01*
X137233000Y-135067000D01*
X137233000Y-135047000D01*
X137213000Y-135047000D01*
X137213000Y-134793000D01*
X137233000Y-134793000D01*
X137233000Y-134773000D01*
X137487000Y-134773000D01*
X137487000Y-134793000D01*
X137487000Y-134793000D01*
G37*
X137487000Y-134793000D02*
X137507000Y-134793000D01*
X137507000Y-135047000D01*
X137487000Y-135047000D01*
X137487000Y-135067000D01*
X137233000Y-135067000D01*
X137233000Y-135047000D01*
X137213000Y-135047000D01*
X137213000Y-134793000D01*
X137233000Y-134793000D01*
X137233000Y-134773000D01*
X137487000Y-134773000D01*
X137487000Y-134793000D01*
G36*
X136713578Y-133584879D02*
G01*
X136478645Y-133724822D01*
X136262412Y-133919731D01*
X136258960Y-133924359D01*
X134678091Y-132343489D01*
X134671055Y-132272054D01*
X134634745Y-132152356D01*
X134575780Y-132042042D01*
X134496428Y-131945351D01*
X133551077Y-131000000D01*
X133816377Y-130734700D01*
X133863399Y-130734700D01*
X136713578Y-133584879D01*
X136713578Y-133584879D01*
G37*
X136713578Y-133584879D02*
X136478645Y-133724822D01*
X136262412Y-133919731D01*
X136258960Y-133924359D01*
X134678091Y-132343489D01*
X134671055Y-132272054D01*
X134634745Y-132152356D01*
X134575780Y-132042042D01*
X134496428Y-131945351D01*
X133551077Y-131000000D01*
X133816377Y-130734700D01*
X133863399Y-130734700D01*
X136713578Y-133584879D01*
G36*
X127829095Y-129990677D02*
G01*
X127990155Y-130057390D01*
X128161135Y-130091400D01*
X128335465Y-130091400D01*
X128468811Y-130064876D01*
X127272087Y-131261601D01*
X127241172Y-131286972D01*
X127171403Y-131371987D01*
X127139951Y-131410311D01*
X127107660Y-131470724D01*
X127064737Y-131551028D01*
X127037991Y-131639196D01*
X126387204Y-132289984D01*
X126295289Y-132214551D01*
X126154573Y-132139338D01*
X126001887Y-132093021D01*
X125843100Y-132077381D01*
X125684312Y-132093021D01*
X125531626Y-132139338D01*
X125390910Y-132214551D01*
X125298480Y-132290407D01*
X125298474Y-132290413D01*
X125269494Y-132314196D01*
X125273568Y-132272833D01*
X127580002Y-129966400D01*
X127792762Y-129966400D01*
X127829095Y-129990677D01*
X127829095Y-129990677D01*
G37*
X127829095Y-129990677D02*
X127990155Y-130057390D01*
X128161135Y-130091400D01*
X128335465Y-130091400D01*
X128468811Y-130064876D01*
X127272087Y-131261601D01*
X127241172Y-131286972D01*
X127171403Y-131371987D01*
X127139951Y-131410311D01*
X127107660Y-131470724D01*
X127064737Y-131551028D01*
X127037991Y-131639196D01*
X126387204Y-132289984D01*
X126295289Y-132214551D01*
X126154573Y-132139338D01*
X126001887Y-132093021D01*
X125843100Y-132077381D01*
X125684312Y-132093021D01*
X125531626Y-132139338D01*
X125390910Y-132214551D01*
X125298480Y-132290407D01*
X125298474Y-132290413D01*
X125269494Y-132314196D01*
X125273568Y-132272833D01*
X127580002Y-129966400D01*
X127792762Y-129966400D01*
X127829095Y-129990677D01*
G36*
X128502889Y-127226222D02*
G01*
X128599580Y-127305574D01*
X128600057Y-127305829D01*
X128600313Y-127306308D01*
X128679665Y-127402999D01*
X129068574Y-127791908D01*
X129165265Y-127871260D01*
X129165744Y-127871516D01*
X129165999Y-127871993D01*
X129245351Y-127968684D01*
X129634260Y-128357593D01*
X129730951Y-128436945D01*
X129731999Y-128437505D01*
X129805607Y-128524595D01*
X129935827Y-128524595D01*
X129960963Y-128532220D01*
X130085445Y-128544480D01*
X130201239Y-128533076D01*
X130189835Y-128648870D01*
X130202095Y-128773352D01*
X130209719Y-128798485D01*
X130209719Y-128928707D01*
X130296809Y-129002315D01*
X130297370Y-129003364D01*
X130376722Y-129100055D01*
X130706667Y-129430000D01*
X129478991Y-129430000D01*
X129439200Y-129426081D01*
X129280412Y-129441720D01*
X129127726Y-129488037D01*
X129078706Y-129514239D01*
X129099290Y-129464545D01*
X129133300Y-129293565D01*
X129133300Y-129119235D01*
X129099290Y-128948255D01*
X129032577Y-128787195D01*
X128935724Y-128642245D01*
X128812455Y-128518976D01*
X128667505Y-128422123D01*
X128506445Y-128355410D01*
X128335465Y-128321400D01*
X128161135Y-128321400D01*
X127990155Y-128355410D01*
X127829095Y-128422123D01*
X127792762Y-128446400D01*
X127302522Y-128446400D01*
X127265199Y-128442724D01*
X127227876Y-128446400D01*
X127227867Y-128446400D01*
X127116214Y-128457397D01*
X126972953Y-128500854D01*
X126840924Y-128571426D01*
X126725199Y-128666399D01*
X126701401Y-128695397D01*
X124360066Y-131036733D01*
X124323333Y-131000000D01*
X124526222Y-130797111D01*
X124605574Y-130700420D01*
X124605829Y-130699943D01*
X124606308Y-130699687D01*
X124702999Y-130620335D01*
X125091908Y-130231426D01*
X125171260Y-130134735D01*
X125171516Y-130134256D01*
X125171993Y-130134001D01*
X125268684Y-130054649D01*
X125657593Y-129665740D01*
X125736945Y-129569049D01*
X125737200Y-129568571D01*
X125737678Y-129568316D01*
X125834369Y-129488964D01*
X126223278Y-129100055D01*
X126302630Y-129003364D01*
X126302886Y-129002886D01*
X126303364Y-129002630D01*
X126400055Y-128923278D01*
X126788964Y-128534369D01*
X126868316Y-128437678D01*
X126868571Y-128437200D01*
X126869049Y-128436945D01*
X126965740Y-128357593D01*
X127354649Y-127968684D01*
X127434001Y-127871993D01*
X127434256Y-127871516D01*
X127434735Y-127871260D01*
X127531426Y-127791908D01*
X127920335Y-127402999D01*
X127999687Y-127306308D01*
X127999943Y-127305829D01*
X128000420Y-127305574D01*
X128097111Y-127226222D01*
X128300000Y-127023333D01*
X128502889Y-127226222D01*
X128502889Y-127226222D01*
G37*
X128502889Y-127226222D02*
X128599580Y-127305574D01*
X128600057Y-127305829D01*
X128600313Y-127306308D01*
X128679665Y-127402999D01*
X129068574Y-127791908D01*
X129165265Y-127871260D01*
X129165744Y-127871516D01*
X129165999Y-127871993D01*
X129245351Y-127968684D01*
X129634260Y-128357593D01*
X129730951Y-128436945D01*
X129731999Y-128437505D01*
X129805607Y-128524595D01*
X129935827Y-128524595D01*
X129960963Y-128532220D01*
X130085445Y-128544480D01*
X130201239Y-128533076D01*
X130189835Y-128648870D01*
X130202095Y-128773352D01*
X130209719Y-128798485D01*
X130209719Y-128928707D01*
X130296809Y-129002315D01*
X130297370Y-129003364D01*
X130376722Y-129100055D01*
X130706667Y-129430000D01*
X129478991Y-129430000D01*
X129439200Y-129426081D01*
X129280412Y-129441720D01*
X129127726Y-129488037D01*
X129078706Y-129514239D01*
X129099290Y-129464545D01*
X129133300Y-129293565D01*
X129133300Y-129119235D01*
X129099290Y-128948255D01*
X129032577Y-128787195D01*
X128935724Y-128642245D01*
X128812455Y-128518976D01*
X128667505Y-128422123D01*
X128506445Y-128355410D01*
X128335465Y-128321400D01*
X128161135Y-128321400D01*
X127990155Y-128355410D01*
X127829095Y-128422123D01*
X127792762Y-128446400D01*
X127302522Y-128446400D01*
X127265199Y-128442724D01*
X127227876Y-128446400D01*
X127227867Y-128446400D01*
X127116214Y-128457397D01*
X126972953Y-128500854D01*
X126840924Y-128571426D01*
X126725199Y-128666399D01*
X126701401Y-128695397D01*
X124360066Y-131036733D01*
X124323333Y-131000000D01*
X124526222Y-130797111D01*
X124605574Y-130700420D01*
X124605829Y-130699943D01*
X124606308Y-130699687D01*
X124702999Y-130620335D01*
X125091908Y-130231426D01*
X125171260Y-130134735D01*
X125171516Y-130134256D01*
X125171993Y-130134001D01*
X125268684Y-130054649D01*
X125657593Y-129665740D01*
X125736945Y-129569049D01*
X125737200Y-129568571D01*
X125737678Y-129568316D01*
X125834369Y-129488964D01*
X126223278Y-129100055D01*
X126302630Y-129003364D01*
X126302886Y-129002886D01*
X126303364Y-129002630D01*
X126400055Y-128923278D01*
X126788964Y-128534369D01*
X126868316Y-128437678D01*
X126868571Y-128437200D01*
X126869049Y-128436945D01*
X126965740Y-128357593D01*
X127354649Y-127968684D01*
X127434001Y-127871993D01*
X127434256Y-127871516D01*
X127434735Y-127871260D01*
X127531426Y-127791908D01*
X127920335Y-127402999D01*
X127999687Y-127306308D01*
X127999943Y-127305829D01*
X128000420Y-127305574D01*
X128097111Y-127226222D01*
X128300000Y-127023333D01*
X128502889Y-127226222D01*
G36*
X143688963Y-124304337D02*
G01*
X143575424Y-124365026D01*
X143459699Y-124459999D01*
X143435901Y-124488997D01*
X142684899Y-125240000D01*
X142477087Y-125240000D01*
X142465812Y-125125518D01*
X142429502Y-125005820D01*
X142370537Y-124895506D01*
X142291185Y-124798815D01*
X142194494Y-124719463D01*
X142084180Y-124660498D01*
X141964482Y-124624188D01*
X141840000Y-124611928D01*
X140870000Y-124611928D01*
X140745518Y-124624188D01*
X140625820Y-124660498D01*
X140515506Y-124719463D01*
X140418815Y-124798815D01*
X140400000Y-124821741D01*
X140381185Y-124798815D01*
X140284494Y-124719463D01*
X140174180Y-124660498D01*
X140054482Y-124624188D01*
X139930000Y-124611928D01*
X138960000Y-124611928D01*
X138835518Y-124624188D01*
X138715820Y-124660498D01*
X138605506Y-124719463D01*
X138508815Y-124798815D01*
X138429463Y-124895506D01*
X138370498Y-125005820D01*
X138334188Y-125125518D01*
X138321928Y-125250000D01*
X138321928Y-126750000D01*
X138334188Y-126874482D01*
X138370498Y-126994180D01*
X138429463Y-127104494D01*
X138508815Y-127201185D01*
X138550652Y-127235520D01*
X138551901Y-127248197D01*
X138551901Y-127347200D01*
X137942662Y-127347200D01*
X137852189Y-127272951D01*
X137711473Y-127197737D01*
X137558788Y-127151420D01*
X137439791Y-127139700D01*
X137400000Y-127135781D01*
X137360209Y-127139700D01*
X137014913Y-127139700D01*
X136908564Y-127033351D01*
X136929502Y-126994180D01*
X136965812Y-126874482D01*
X136978072Y-126750000D01*
X136978072Y-125250000D01*
X136965812Y-125125518D01*
X136929502Y-125005820D01*
X136870537Y-124895506D01*
X136791185Y-124798815D01*
X136694494Y-124719463D01*
X136584180Y-124660498D01*
X136464482Y-124624188D01*
X136340000Y-124611928D01*
X135370000Y-124611928D01*
X135245518Y-124624188D01*
X135125820Y-124660498D01*
X135015506Y-124719463D01*
X134918815Y-124798815D01*
X134900000Y-124821741D01*
X134881185Y-124798815D01*
X134784494Y-124719463D01*
X134674180Y-124660498D01*
X134554482Y-124624188D01*
X134430000Y-124611928D01*
X134230750Y-124615000D01*
X134072000Y-124773750D01*
X134072000Y-125873000D01*
X134092000Y-125873000D01*
X134092000Y-126127000D01*
X134072000Y-126127000D01*
X134072000Y-126147000D01*
X133818000Y-126147000D01*
X133818000Y-126127000D01*
X132983750Y-126127000D01*
X132825000Y-126285750D01*
X132821928Y-126750000D01*
X132834188Y-126874482D01*
X132870498Y-126994180D01*
X132929463Y-127104494D01*
X133008815Y-127201185D01*
X133105506Y-127280537D01*
X133215820Y-127339502D01*
X133335518Y-127375812D01*
X133460000Y-127388072D01*
X133596926Y-127385961D01*
X133163518Y-127819369D01*
X132976148Y-127631999D01*
X132879457Y-127552647D01*
X132878979Y-127552392D01*
X132878724Y-127551914D01*
X132799372Y-127455223D01*
X132410463Y-127066314D01*
X132313772Y-126986962D01*
X132312723Y-126986401D01*
X132239115Y-126899311D01*
X132108893Y-126899311D01*
X132083760Y-126891687D01*
X131959278Y-126879427D01*
X131843484Y-126890831D01*
X131854888Y-126775037D01*
X131842628Y-126650555D01*
X131835003Y-126625419D01*
X131835003Y-126495199D01*
X131747913Y-126421591D01*
X131747353Y-126420543D01*
X131668001Y-126323852D01*
X131279092Y-125934943D01*
X131182401Y-125855591D01*
X131181922Y-125855335D01*
X131181667Y-125854858D01*
X131102315Y-125758167D01*
X130713406Y-125369258D01*
X130616715Y-125289906D01*
X130616238Y-125289651D01*
X130615982Y-125289172D01*
X130583835Y-125250000D01*
X132821928Y-125250000D01*
X132825000Y-125714250D01*
X132983750Y-125873000D01*
X133818000Y-125873000D01*
X133818000Y-124773750D01*
X133659250Y-124615000D01*
X133460000Y-124611928D01*
X133335518Y-124624188D01*
X133215820Y-124660498D01*
X133105506Y-124719463D01*
X133008815Y-124798815D01*
X132929463Y-124895506D01*
X132870498Y-125005820D01*
X132834188Y-125125518D01*
X132821928Y-125250000D01*
X130583835Y-125250000D01*
X130536630Y-125192481D01*
X130147721Y-124803572D01*
X130051030Y-124724220D01*
X129940716Y-124665255D01*
X129821018Y-124628945D01*
X129696536Y-124616685D01*
X129572054Y-124628945D01*
X129452356Y-124665255D01*
X129342042Y-124724220D01*
X129245351Y-124803572D01*
X128300000Y-125748923D01*
X127354649Y-124803572D01*
X127257958Y-124724220D01*
X127147644Y-124665255D01*
X127027946Y-124628945D01*
X126903464Y-124616685D01*
X126778982Y-124628945D01*
X126659284Y-124665255D01*
X126548970Y-124724220D01*
X126452279Y-124803572D01*
X126063370Y-125192481D01*
X125984018Y-125289172D01*
X125983762Y-125289651D01*
X125983285Y-125289906D01*
X125886594Y-125369258D01*
X125497685Y-125758167D01*
X125418333Y-125854858D01*
X125418078Y-125855335D01*
X125417599Y-125855591D01*
X125320908Y-125934943D01*
X125098126Y-126157725D01*
X124169104Y-125228702D01*
X124145301Y-125199699D01*
X124029576Y-125104726D01*
X123897547Y-125034154D01*
X123754286Y-124990697D01*
X123642633Y-124979700D01*
X123642622Y-124979700D01*
X123605300Y-124976024D01*
X123567978Y-124979700D01*
X121810000Y-124979700D01*
X121810000Y-124967998D01*
X121651252Y-124967998D01*
X121810000Y-124809250D01*
X121813072Y-124795000D01*
X121800812Y-124670518D01*
X121764502Y-124550820D01*
X121705537Y-124440506D01*
X121626185Y-124343815D01*
X121529494Y-124264463D01*
X121427603Y-124210000D01*
X143698254Y-124210000D01*
X143688963Y-124304337D01*
X143688963Y-124304337D01*
G37*
X143688963Y-124304337D02*
X143575424Y-124365026D01*
X143459699Y-124459999D01*
X143435901Y-124488997D01*
X142684899Y-125240000D01*
X142477087Y-125240000D01*
X142465812Y-125125518D01*
X142429502Y-125005820D01*
X142370537Y-124895506D01*
X142291185Y-124798815D01*
X142194494Y-124719463D01*
X142084180Y-124660498D01*
X141964482Y-124624188D01*
X141840000Y-124611928D01*
X140870000Y-124611928D01*
X140745518Y-124624188D01*
X140625820Y-124660498D01*
X140515506Y-124719463D01*
X140418815Y-124798815D01*
X140400000Y-124821741D01*
X140381185Y-124798815D01*
X140284494Y-124719463D01*
X140174180Y-124660498D01*
X140054482Y-124624188D01*
X139930000Y-124611928D01*
X138960000Y-124611928D01*
X138835518Y-124624188D01*
X138715820Y-124660498D01*
X138605506Y-124719463D01*
X138508815Y-124798815D01*
X138429463Y-124895506D01*
X138370498Y-125005820D01*
X138334188Y-125125518D01*
X138321928Y-125250000D01*
X138321928Y-126750000D01*
X138334188Y-126874482D01*
X138370498Y-126994180D01*
X138429463Y-127104494D01*
X138508815Y-127201185D01*
X138550652Y-127235520D01*
X138551901Y-127248197D01*
X138551901Y-127347200D01*
X137942662Y-127347200D01*
X137852189Y-127272951D01*
X137711473Y-127197737D01*
X137558788Y-127151420D01*
X137439791Y-127139700D01*
X137400000Y-127135781D01*
X137360209Y-127139700D01*
X137014913Y-127139700D01*
X136908564Y-127033351D01*
X136929502Y-126994180D01*
X136965812Y-126874482D01*
X136978072Y-126750000D01*
X136978072Y-125250000D01*
X136965812Y-125125518D01*
X136929502Y-125005820D01*
X136870537Y-124895506D01*
X136791185Y-124798815D01*
X136694494Y-124719463D01*
X136584180Y-124660498D01*
X136464482Y-124624188D01*
X136340000Y-124611928D01*
X135370000Y-124611928D01*
X135245518Y-124624188D01*
X135125820Y-124660498D01*
X135015506Y-124719463D01*
X134918815Y-124798815D01*
X134900000Y-124821741D01*
X134881185Y-124798815D01*
X134784494Y-124719463D01*
X134674180Y-124660498D01*
X134554482Y-124624188D01*
X134430000Y-124611928D01*
X134230750Y-124615000D01*
X134072000Y-124773750D01*
X134072000Y-125873000D01*
X134092000Y-125873000D01*
X134092000Y-126127000D01*
X134072000Y-126127000D01*
X134072000Y-126147000D01*
X133818000Y-126147000D01*
X133818000Y-126127000D01*
X132983750Y-126127000D01*
X132825000Y-126285750D01*
X132821928Y-126750000D01*
X132834188Y-126874482D01*
X132870498Y-126994180D01*
X132929463Y-127104494D01*
X133008815Y-127201185D01*
X133105506Y-127280537D01*
X133215820Y-127339502D01*
X133335518Y-127375812D01*
X133460000Y-127388072D01*
X133596926Y-127385961D01*
X133163518Y-127819369D01*
X132976148Y-127631999D01*
X132879457Y-127552647D01*
X132878979Y-127552392D01*
X132878724Y-127551914D01*
X132799372Y-127455223D01*
X132410463Y-127066314D01*
X132313772Y-126986962D01*
X132312723Y-126986401D01*
X132239115Y-126899311D01*
X132108893Y-126899311D01*
X132083760Y-126891687D01*
X131959278Y-126879427D01*
X131843484Y-126890831D01*
X131854888Y-126775037D01*
X131842628Y-126650555D01*
X131835003Y-126625419D01*
X131835003Y-126495199D01*
X131747913Y-126421591D01*
X131747353Y-126420543D01*
X131668001Y-126323852D01*
X131279092Y-125934943D01*
X131182401Y-125855591D01*
X131181922Y-125855335D01*
X131181667Y-125854858D01*
X131102315Y-125758167D01*
X130713406Y-125369258D01*
X130616715Y-125289906D01*
X130616238Y-125289651D01*
X130615982Y-125289172D01*
X130583835Y-125250000D01*
X132821928Y-125250000D01*
X132825000Y-125714250D01*
X132983750Y-125873000D01*
X133818000Y-125873000D01*
X133818000Y-124773750D01*
X133659250Y-124615000D01*
X133460000Y-124611928D01*
X133335518Y-124624188D01*
X133215820Y-124660498D01*
X133105506Y-124719463D01*
X133008815Y-124798815D01*
X132929463Y-124895506D01*
X132870498Y-125005820D01*
X132834188Y-125125518D01*
X132821928Y-125250000D01*
X130583835Y-125250000D01*
X130536630Y-125192481D01*
X130147721Y-124803572D01*
X130051030Y-124724220D01*
X129940716Y-124665255D01*
X129821018Y-124628945D01*
X129696536Y-124616685D01*
X129572054Y-124628945D01*
X129452356Y-124665255D01*
X129342042Y-124724220D01*
X129245351Y-124803572D01*
X128300000Y-125748923D01*
X127354649Y-124803572D01*
X127257958Y-124724220D01*
X127147644Y-124665255D01*
X127027946Y-124628945D01*
X126903464Y-124616685D01*
X126778982Y-124628945D01*
X126659284Y-124665255D01*
X126548970Y-124724220D01*
X126452279Y-124803572D01*
X126063370Y-125192481D01*
X125984018Y-125289172D01*
X125983762Y-125289651D01*
X125983285Y-125289906D01*
X125886594Y-125369258D01*
X125497685Y-125758167D01*
X125418333Y-125854858D01*
X125418078Y-125855335D01*
X125417599Y-125855591D01*
X125320908Y-125934943D01*
X125098126Y-126157725D01*
X124169104Y-125228702D01*
X124145301Y-125199699D01*
X124029576Y-125104726D01*
X123897547Y-125034154D01*
X123754286Y-124990697D01*
X123642633Y-124979700D01*
X123642622Y-124979700D01*
X123605300Y-124976024D01*
X123567978Y-124979700D01*
X121810000Y-124979700D01*
X121810000Y-124967998D01*
X121651252Y-124967998D01*
X121810000Y-124809250D01*
X121813072Y-124795000D01*
X121800812Y-124670518D01*
X121764502Y-124550820D01*
X121705537Y-124440506D01*
X121626185Y-124343815D01*
X121529494Y-124264463D01*
X121427603Y-124210000D01*
X143698254Y-124210000D01*
X143688963Y-124304337D01*
G36*
X120527000Y-124968000D02*
G01*
X120547000Y-124968000D01*
X120547000Y-124979700D01*
X120253000Y-124979700D01*
X120253000Y-124968000D01*
X120273000Y-124968000D01*
X120273000Y-124948000D01*
X120527000Y-124948000D01*
X120527000Y-124968000D01*
X120527000Y-124968000D01*
G37*
X120527000Y-124968000D02*
X120547000Y-124968000D01*
X120547000Y-124979700D01*
X120253000Y-124979700D01*
X120253000Y-124968000D01*
X120273000Y-124968000D01*
X120273000Y-124948000D01*
X120527000Y-124948000D01*
X120527000Y-124968000D01*
M02*
