G04 #@! TF.GenerationSoftware,KiCad,Pcbnew,(5.1.2-1)-1*
G04 #@! TF.CreationDate,2019-05-25T15:40:47+02:00*
G04 #@! TF.ProjectId,PSX64 Interface,50535836-3420-4496-9e74-657266616365,1.0*
G04 #@! TF.SameCoordinates,Original*
G04 #@! TF.FileFunction,Soldermask,Top*
G04 #@! TF.FilePolarity,Negative*
%FSLAX46Y46*%
G04 Gerber Fmt 4.6, Leading zero omitted, Abs format (unit mm)*
G04 Created by KiCad (PCBNEW (5.1.2-1)-1) date 2019-05-25 15:40:47*
%MOMM*%
%LPD*%
G04 APERTURE LIST*
%ADD10C,0.950000*%
%ADD11C,0.100000*%
%ADD12R,1.800000X1.760000*%
%ADD13R,1.900000X1.370000*%
%ADD14R,1.370000X1.900000*%
%ADD15R,2.200000X2.900000*%
%ADD16O,1.750000X1.750000*%
%ADD17R,1.750000X1.750000*%
%ADD18R,1.950000X1.000000*%
%ADD19R,2.400000X2.800000*%
%ADD20R,2.100000X2.100000*%
%ADD21O,2.100000X2.100000*%
G04 APERTURE END LIST*
D10*
X123314897Y-129974695D03*
D11*
G36*
X124357880Y-130345926D02*
G01*
X123686128Y-131017678D01*
X122271914Y-129603464D01*
X122943666Y-128931712D01*
X124357880Y-130345926D01*
X124357880Y-130345926D01*
G37*
D10*
X123880583Y-129409010D03*
D11*
G36*
X124923566Y-129780241D02*
G01*
X124251814Y-130451993D01*
X122837600Y-129037779D01*
X123509352Y-128366027D01*
X124923566Y-129780241D01*
X124923566Y-129780241D01*
G37*
D10*
X124446268Y-128843324D03*
D11*
G36*
X125489251Y-129214555D02*
G01*
X124817499Y-129886307D01*
X123403285Y-128472093D01*
X124075037Y-127800341D01*
X125489251Y-129214555D01*
X125489251Y-129214555D01*
G37*
D10*
X125011953Y-128277639D03*
D11*
G36*
X126054936Y-128648870D02*
G01*
X125383184Y-129320622D01*
X123968970Y-127906408D01*
X124640722Y-127234656D01*
X126054936Y-128648870D01*
X126054936Y-128648870D01*
G37*
D10*
X125577639Y-127711953D03*
D11*
G36*
X126620622Y-128083184D02*
G01*
X125948870Y-128754936D01*
X124534656Y-127340722D01*
X125206408Y-126668970D01*
X126620622Y-128083184D01*
X126620622Y-128083184D01*
G37*
D10*
X126143324Y-127146268D03*
D11*
G36*
X127186307Y-127517499D02*
G01*
X126514555Y-128189251D01*
X125100341Y-126775037D01*
X125772093Y-126103285D01*
X127186307Y-127517499D01*
X127186307Y-127517499D01*
G37*
D10*
X126709010Y-126580583D03*
D11*
G36*
X127751993Y-126951814D02*
G01*
X127080241Y-127623566D01*
X125666027Y-126209352D01*
X126337779Y-125537600D01*
X127751993Y-126951814D01*
X127751993Y-126951814D01*
G37*
D10*
X127274695Y-126014897D03*
D11*
G36*
X128317678Y-126386128D02*
G01*
X127645926Y-127057880D01*
X126231712Y-125643666D01*
X126903464Y-124971914D01*
X128317678Y-126386128D01*
X128317678Y-126386128D01*
G37*
D10*
X129325305Y-126014897D03*
D11*
G36*
X128954074Y-127057880D02*
G01*
X128282322Y-126386128D01*
X129696536Y-124971914D01*
X130368288Y-125643666D01*
X128954074Y-127057880D01*
X128954074Y-127057880D01*
G37*
D10*
X129890990Y-126580583D03*
D11*
G36*
X129519759Y-127623566D02*
G01*
X128848007Y-126951814D01*
X130262221Y-125537600D01*
X130933973Y-126209352D01*
X129519759Y-127623566D01*
X129519759Y-127623566D01*
G37*
D10*
X130456676Y-127146268D03*
D11*
G36*
X130085445Y-128189251D02*
G01*
X129413693Y-127517499D01*
X130827907Y-126103285D01*
X131499659Y-126775037D01*
X130085445Y-128189251D01*
X130085445Y-128189251D01*
G37*
D10*
X131022361Y-127711953D03*
D11*
G36*
X130651130Y-128754936D02*
G01*
X129979378Y-128083184D01*
X131393592Y-126668970D01*
X132065344Y-127340722D01*
X130651130Y-128754936D01*
X130651130Y-128754936D01*
G37*
D10*
X131588047Y-128277639D03*
D11*
G36*
X131216816Y-129320622D02*
G01*
X130545064Y-128648870D01*
X131959278Y-127234656D01*
X132631030Y-127906408D01*
X131216816Y-129320622D01*
X131216816Y-129320622D01*
G37*
D10*
X132153732Y-128843324D03*
D11*
G36*
X131782501Y-129886307D02*
G01*
X131110749Y-129214555D01*
X132524963Y-127800341D01*
X133196715Y-128472093D01*
X131782501Y-129886307D01*
X131782501Y-129886307D01*
G37*
D10*
X132719417Y-129409010D03*
D11*
G36*
X132348186Y-130451993D02*
G01*
X131676434Y-129780241D01*
X133090648Y-128366027D01*
X133762400Y-129037779D01*
X132348186Y-130451993D01*
X132348186Y-130451993D01*
G37*
D10*
X133285103Y-129974695D03*
D11*
G36*
X132913872Y-131017678D02*
G01*
X132242120Y-130345926D01*
X133656334Y-128931712D01*
X134328086Y-129603464D01*
X132913872Y-131017678D01*
X132913872Y-131017678D01*
G37*
D10*
X133285103Y-132025305D03*
D11*
G36*
X134328086Y-132396536D02*
G01*
X133656334Y-133068288D01*
X132242120Y-131654074D01*
X132913872Y-130982322D01*
X134328086Y-132396536D01*
X134328086Y-132396536D01*
G37*
D10*
X132719417Y-132590990D03*
D11*
G36*
X133762400Y-132962221D02*
G01*
X133090648Y-133633973D01*
X131676434Y-132219759D01*
X132348186Y-131548007D01*
X133762400Y-132962221D01*
X133762400Y-132962221D01*
G37*
D10*
X132153732Y-133156676D03*
D11*
G36*
X133196715Y-133527907D02*
G01*
X132524963Y-134199659D01*
X131110749Y-132785445D01*
X131782501Y-132113693D01*
X133196715Y-133527907D01*
X133196715Y-133527907D01*
G37*
D10*
X131588047Y-133722361D03*
D11*
G36*
X132631030Y-134093592D02*
G01*
X131959278Y-134765344D01*
X130545064Y-133351130D01*
X131216816Y-132679378D01*
X132631030Y-134093592D01*
X132631030Y-134093592D01*
G37*
D10*
X131022361Y-134288047D03*
D11*
G36*
X132065344Y-134659278D02*
G01*
X131393592Y-135331030D01*
X129979378Y-133916816D01*
X130651130Y-133245064D01*
X132065344Y-134659278D01*
X132065344Y-134659278D01*
G37*
D10*
X130456676Y-134853732D03*
D11*
G36*
X131499659Y-135224963D02*
G01*
X130827907Y-135896715D01*
X129413693Y-134482501D01*
X130085445Y-133810749D01*
X131499659Y-135224963D01*
X131499659Y-135224963D01*
G37*
D10*
X129890990Y-135419417D03*
D11*
G36*
X130933973Y-135790648D02*
G01*
X130262221Y-136462400D01*
X128848007Y-135048186D01*
X129519759Y-134376434D01*
X130933973Y-135790648D01*
X130933973Y-135790648D01*
G37*
D10*
X129325305Y-135985103D03*
D11*
G36*
X130368288Y-136356334D02*
G01*
X129696536Y-137028086D01*
X128282322Y-135613872D01*
X128954074Y-134942120D01*
X130368288Y-136356334D01*
X130368288Y-136356334D01*
G37*
D10*
X127274695Y-135985103D03*
D11*
G36*
X126903464Y-137028086D02*
G01*
X126231712Y-136356334D01*
X127645926Y-134942120D01*
X128317678Y-135613872D01*
X126903464Y-137028086D01*
X126903464Y-137028086D01*
G37*
D10*
X126709010Y-135419417D03*
D11*
G36*
X126337779Y-136462400D02*
G01*
X125666027Y-135790648D01*
X127080241Y-134376434D01*
X127751993Y-135048186D01*
X126337779Y-136462400D01*
X126337779Y-136462400D01*
G37*
D10*
X126143324Y-134853732D03*
D11*
G36*
X125772093Y-135896715D02*
G01*
X125100341Y-135224963D01*
X126514555Y-133810749D01*
X127186307Y-134482501D01*
X125772093Y-135896715D01*
X125772093Y-135896715D01*
G37*
D10*
X125577639Y-134288047D03*
D11*
G36*
X125206408Y-135331030D02*
G01*
X124534656Y-134659278D01*
X125948870Y-133245064D01*
X126620622Y-133916816D01*
X125206408Y-135331030D01*
X125206408Y-135331030D01*
G37*
D10*
X125011953Y-133722361D03*
D11*
G36*
X124640722Y-134765344D02*
G01*
X123968970Y-134093592D01*
X125383184Y-132679378D01*
X126054936Y-133351130D01*
X124640722Y-134765344D01*
X124640722Y-134765344D01*
G37*
D10*
X124446268Y-133156676D03*
D11*
G36*
X124075037Y-134199659D02*
G01*
X123403285Y-133527907D01*
X124817499Y-132113693D01*
X125489251Y-132785445D01*
X124075037Y-134199659D01*
X124075037Y-134199659D01*
G37*
D10*
X123880583Y-132590990D03*
D11*
G36*
X123509352Y-133633973D02*
G01*
X122837600Y-132962221D01*
X124251814Y-131548007D01*
X124923566Y-132219759D01*
X123509352Y-133633973D01*
X123509352Y-133633973D01*
G37*
D10*
X123314897Y-132025305D03*
D11*
G36*
X122943666Y-133068288D02*
G01*
X122271914Y-132396536D01*
X123686128Y-130982322D01*
X124357880Y-131654074D01*
X122943666Y-133068288D01*
X122943666Y-133068288D01*
G37*
D12*
X140900000Y-128620000D03*
X140900000Y-131380000D03*
D13*
X123300000Y-139045000D03*
X123300000Y-140955000D03*
X133300000Y-140955000D03*
X133300000Y-139045000D03*
D14*
X135855000Y-126000000D03*
X133945000Y-126000000D03*
D15*
X111500000Y-136000000D03*
X111500000Y-140000000D03*
X111500000Y-130000000D03*
X111500000Y-126000000D03*
D16*
X107500000Y-141000000D03*
X107500000Y-139000000D03*
X107500000Y-137000000D03*
X107500000Y-135000000D03*
X107500000Y-133000000D03*
X107500000Y-131000000D03*
X107500000Y-129000000D03*
X107500000Y-127000000D03*
D17*
X107500000Y-125000000D03*
X137400000Y-129000000D03*
D16*
X137400000Y-131000000D03*
D17*
X145000000Y-125000000D03*
D16*
X145000000Y-127000000D03*
X145000000Y-129000000D03*
X145000000Y-131000000D03*
X145000000Y-133000000D03*
X145000000Y-135000000D03*
X145000000Y-137000000D03*
X145000000Y-139000000D03*
X145000000Y-141000000D03*
D14*
X139445000Y-126000000D03*
X141355000Y-126000000D03*
D13*
X114900000Y-132045000D03*
X114900000Y-133955000D03*
D18*
X120400000Y-140905000D03*
X120400000Y-139635000D03*
X120400000Y-138365000D03*
X120400000Y-137095000D03*
X115000000Y-137095000D03*
X115000000Y-138365000D03*
X115000000Y-139635000D03*
X115000000Y-140905000D03*
X115000000Y-128905000D03*
X115000000Y-127635000D03*
X115000000Y-126365000D03*
X115000000Y-125095000D03*
X120400000Y-125095000D03*
X120400000Y-126365000D03*
X120400000Y-127635000D03*
X120400000Y-128905000D03*
D19*
X126450000Y-140000000D03*
X130150000Y-140000000D03*
D20*
X139900000Y-140000000D03*
D21*
X137360000Y-140000000D03*
X139900000Y-137460000D03*
X137360000Y-137460000D03*
X139900000Y-134920000D03*
X137360000Y-134920000D03*
M02*
