G04 #@! TF.GenerationSoftware,KiCad,Pcbnew,(5.1.2-1)-1*
G04 #@! TF.CreationDate,2019-05-25T15:40:47+02:00*
G04 #@! TF.ProjectId,PSX64 Interface,50535836-3420-4496-9e74-657266616365,1.0*
G04 #@! TF.SameCoordinates,Original*
G04 #@! TF.FileFunction,Legend,Top*
G04 #@! TF.FilePolarity,Positive*
%FSLAX46Y46*%
G04 Gerber Fmt 4.6, Leading zero omitted, Abs format (unit mm)*
G04 Created by KiCad (PCBNEW (5.1.2-1)-1) date 2019-05-25 15:40:47*
%MOMM*%
%LPD*%
G04 APERTURE LIST*
%ADD10C,0.375000*%
%ADD11C,0.150000*%
%ADD12C,0.120000*%
G04 APERTURE END LIST*
D10*
X116250000Y-134678571D02*
X116250000Y-133178571D01*
X116821428Y-133178571D01*
X116964285Y-133250000D01*
X117035714Y-133321428D01*
X117107142Y-133464285D01*
X117107142Y-133678571D01*
X117035714Y-133821428D01*
X116964285Y-133892857D01*
X116821428Y-133964285D01*
X116250000Y-133964285D01*
X117678571Y-134607142D02*
X117892857Y-134678571D01*
X118250000Y-134678571D01*
X118392857Y-134607142D01*
X118464285Y-134535714D01*
X118535714Y-134392857D01*
X118535714Y-134250000D01*
X118464285Y-134107142D01*
X118392857Y-134035714D01*
X118250000Y-133964285D01*
X117964285Y-133892857D01*
X117821428Y-133821428D01*
X117750000Y-133750000D01*
X117678571Y-133607142D01*
X117678571Y-133464285D01*
X117750000Y-133321428D01*
X117821428Y-133250000D01*
X117964285Y-133178571D01*
X118321428Y-133178571D01*
X118535714Y-133250000D01*
X119035714Y-133178571D02*
X120035714Y-134678571D01*
X120035714Y-133178571D02*
X119035714Y-134678571D01*
X121250000Y-133178571D02*
X120964285Y-133178571D01*
X120821428Y-133250000D01*
X120750000Y-133321428D01*
X120607142Y-133535714D01*
X120535714Y-133821428D01*
X120535714Y-134392857D01*
X120607142Y-134535714D01*
X120678571Y-134607142D01*
X120821428Y-134678571D01*
X121107142Y-134678571D01*
X121250000Y-134607142D01*
X121321428Y-134535714D01*
X121392857Y-134392857D01*
X121392857Y-134035714D01*
X121321428Y-133892857D01*
X121250000Y-133821428D01*
X121107142Y-133750000D01*
X120821428Y-133750000D01*
X120678571Y-133821428D01*
X120607142Y-133892857D01*
X120535714Y-134035714D01*
X122678571Y-133678571D02*
X122678571Y-134678571D01*
X122321428Y-133107142D02*
X121964285Y-134178571D01*
X122892857Y-134178571D01*
D11*
X123332575Y-131159099D02*
X122324948Y-132166726D01*
X128300000Y-125873476D02*
X128070190Y-126103286D01*
X133426524Y-131000000D02*
X133196714Y-131229810D01*
X128300000Y-136126524D02*
X128529810Y-135896714D01*
X123173476Y-131000000D02*
X123403286Y-130770190D01*
X128300000Y-136126524D02*
X128070190Y-135896714D01*
X133426524Y-131000000D02*
X133196714Y-130770190D01*
X128300000Y-125873476D02*
X128529810Y-126103286D01*
X123173476Y-131000000D02*
X123332575Y-131159099D01*
D12*
X141960000Y-131600000D02*
X141960000Y-127680000D01*
X141960000Y-127680000D02*
X139840000Y-127680000D01*
X139840000Y-127680000D02*
X139840000Y-131600000D01*
X124010000Y-139850000D02*
X124010000Y-140150000D01*
X122590000Y-139850000D02*
X122590000Y-140150000D01*
X132590000Y-139850000D02*
X132590000Y-140150000D01*
X134010000Y-139850000D02*
X134010000Y-140150000D01*
X135050000Y-126710000D02*
X134750000Y-126710000D01*
X135050000Y-125290000D02*
X134750000Y-125290000D01*
X113150000Y-134600000D02*
X109850000Y-134600000D01*
X109850000Y-134600000D02*
X109850000Y-140000000D01*
X113150000Y-134600000D02*
X113150000Y-140000000D01*
X113150000Y-124600000D02*
X113150000Y-130000000D01*
X109850000Y-124600000D02*
X109850000Y-130000000D01*
X113150000Y-124600000D02*
X109850000Y-124600000D01*
X106440000Y-123940000D02*
X107500000Y-123940000D01*
X106440000Y-125000000D02*
X106440000Y-123940000D01*
X106440000Y-126000000D02*
X108560000Y-126000000D01*
X108560000Y-126000000D02*
X108560000Y-142060000D01*
X106440000Y-126000000D02*
X106440000Y-142060000D01*
X106440000Y-142060000D02*
X108560000Y-142060000D01*
X136340000Y-132060000D02*
X138460000Y-132060000D01*
X136340000Y-130000000D02*
X136340000Y-132060000D01*
X138460000Y-130000000D02*
X138460000Y-132060000D01*
X136340000Y-130000000D02*
X138460000Y-130000000D01*
X136340000Y-129000000D02*
X136340000Y-127940000D01*
X136340000Y-127940000D02*
X137400000Y-127940000D01*
X143940000Y-142060000D02*
X146060000Y-142060000D01*
X143940000Y-126000000D02*
X143940000Y-142060000D01*
X146060000Y-126000000D02*
X146060000Y-142060000D01*
X143940000Y-126000000D02*
X146060000Y-126000000D01*
X143940000Y-125000000D02*
X143940000Y-123940000D01*
X143940000Y-123940000D02*
X145000000Y-123940000D01*
X140250000Y-125290000D02*
X140550000Y-125290000D01*
X140250000Y-126710000D02*
X140550000Y-126710000D01*
X115610000Y-133150000D02*
X115610000Y-132850000D01*
X114190000Y-133150000D02*
X114190000Y-132850000D01*
D11*
X119775000Y-141575000D02*
X119775000Y-141525000D01*
X115625000Y-141575000D02*
X115625000Y-141430000D01*
X115625000Y-136425000D02*
X115625000Y-136570000D01*
X119775000Y-136425000D02*
X119775000Y-136570000D01*
X119775000Y-141575000D02*
X115625000Y-141575000D01*
X119775000Y-136425000D02*
X115625000Y-136425000D01*
X119775000Y-141525000D02*
X121175000Y-141525000D01*
X119775000Y-129525000D02*
X121175000Y-129525000D01*
X119775000Y-124425000D02*
X115625000Y-124425000D01*
X119775000Y-129575000D02*
X115625000Y-129575000D01*
X119775000Y-124425000D02*
X119775000Y-124570000D01*
X115625000Y-124425000D02*
X115625000Y-124570000D01*
X115625000Y-129575000D02*
X115625000Y-129430000D01*
X119775000Y-129575000D02*
X119775000Y-129525000D01*
D12*
X131000000Y-138200000D02*
X125250000Y-138200000D01*
X125250000Y-138200000D02*
X125250000Y-141800000D01*
X125250000Y-141800000D02*
X131000000Y-141800000D01*
X141230000Y-133590000D02*
X136030000Y-133590000D01*
X141230000Y-138730000D02*
X141230000Y-133590000D01*
X136030000Y-141330000D02*
X136030000Y-133590000D01*
X141230000Y-138730000D02*
X138630000Y-138730000D01*
X138630000Y-138730000D02*
X138630000Y-141330000D01*
X138630000Y-141330000D02*
X136030000Y-141330000D01*
X141230000Y-140000000D02*
X141230000Y-141330000D01*
X141230000Y-141330000D02*
X139900000Y-141330000D01*
D11*
X123096030Y-126873526D02*
X123668450Y-127445946D01*
X123769465Y-127479618D01*
X123836809Y-127479618D01*
X123937824Y-127445946D01*
X124072511Y-127311259D01*
X124106183Y-127210244D01*
X124106183Y-127142900D01*
X124072511Y-127041885D01*
X123500091Y-126469465D01*
X123769465Y-126200091D02*
X124207198Y-125762359D01*
X124240870Y-126267435D01*
X124341885Y-126166420D01*
X124442900Y-126132748D01*
X124510244Y-126132748D01*
X124611259Y-126166420D01*
X124779618Y-126334778D01*
X124813290Y-126435794D01*
X124813290Y-126503137D01*
X124779618Y-126604152D01*
X124577587Y-126806183D01*
X124476572Y-126839855D01*
X124409229Y-126839855D01*
X143021428Y-130150000D02*
X143064285Y-130192857D01*
X143107142Y-130321428D01*
X143107142Y-130407142D01*
X143064285Y-130535714D01*
X142978571Y-130621428D01*
X142892857Y-130664285D01*
X142721428Y-130707142D01*
X142592857Y-130707142D01*
X142421428Y-130664285D01*
X142335714Y-130621428D01*
X142250000Y-130535714D01*
X142207142Y-130407142D01*
X142207142Y-130321428D01*
X142250000Y-130192857D01*
X142292857Y-130150000D01*
X143107142Y-129292857D02*
X143107142Y-129807142D01*
X143107142Y-129550000D02*
X142207142Y-129550000D01*
X142335714Y-129635714D01*
X142421428Y-129721428D01*
X142464285Y-129807142D01*
X123150000Y-138021428D02*
X123107142Y-138064285D01*
X122978571Y-138107142D01*
X122892857Y-138107142D01*
X122764285Y-138064285D01*
X122678571Y-137978571D01*
X122635714Y-137892857D01*
X122592857Y-137721428D01*
X122592857Y-137592857D01*
X122635714Y-137421428D01*
X122678571Y-137335714D01*
X122764285Y-137250000D01*
X122892857Y-137207142D01*
X122978571Y-137207142D01*
X123107142Y-137250000D01*
X123150000Y-137292857D01*
X123492857Y-137292857D02*
X123535714Y-137250000D01*
X123621428Y-137207142D01*
X123835714Y-137207142D01*
X123921428Y-137250000D01*
X123964285Y-137292857D01*
X124007142Y-137378571D01*
X124007142Y-137464285D01*
X123964285Y-137592857D01*
X123450000Y-138107142D01*
X124007142Y-138107142D01*
X133150000Y-138021428D02*
X133107142Y-138064285D01*
X132978571Y-138107142D01*
X132892857Y-138107142D01*
X132764285Y-138064285D01*
X132678571Y-137978571D01*
X132635714Y-137892857D01*
X132592857Y-137721428D01*
X132592857Y-137592857D01*
X132635714Y-137421428D01*
X132678571Y-137335714D01*
X132764285Y-137250000D01*
X132892857Y-137207142D01*
X132978571Y-137207142D01*
X133107142Y-137250000D01*
X133150000Y-137292857D01*
X133450000Y-137207142D02*
X134007142Y-137207142D01*
X133707142Y-137550000D01*
X133835714Y-137550000D01*
X133921428Y-137592857D01*
X133964285Y-137635714D01*
X134007142Y-137721428D01*
X134007142Y-137935714D01*
X133964285Y-138021428D01*
X133921428Y-138064285D01*
X133835714Y-138107142D01*
X133578571Y-138107142D01*
X133492857Y-138064285D01*
X133450000Y-138021428D01*
X134750000Y-124721428D02*
X134707142Y-124764285D01*
X134578571Y-124807142D01*
X134492857Y-124807142D01*
X134364285Y-124764285D01*
X134278571Y-124678571D01*
X134235714Y-124592857D01*
X134192857Y-124421428D01*
X134192857Y-124292857D01*
X134235714Y-124121428D01*
X134278571Y-124035714D01*
X134364285Y-123950000D01*
X134492857Y-123907142D01*
X134578571Y-123907142D01*
X134707142Y-123950000D01*
X134750000Y-123992857D01*
X135521428Y-124207142D02*
X135521428Y-124807142D01*
X135307142Y-123864285D02*
X135092857Y-124507142D01*
X135650000Y-124507142D01*
X110835714Y-134307142D02*
X110835714Y-133407142D01*
X111050000Y-133407142D01*
X111178571Y-133450000D01*
X111264285Y-133535714D01*
X111307142Y-133621428D01*
X111350000Y-133792857D01*
X111350000Y-133921428D01*
X111307142Y-134092857D01*
X111264285Y-134178571D01*
X111178571Y-134264285D01*
X111050000Y-134307142D01*
X110835714Y-134307142D01*
X112207142Y-134307142D02*
X111692857Y-134307142D01*
X111950000Y-134307142D02*
X111950000Y-133407142D01*
X111864285Y-133535714D01*
X111778571Y-133621428D01*
X111692857Y-133664285D01*
X110835714Y-132607142D02*
X110835714Y-131707142D01*
X111050000Y-131707142D01*
X111178571Y-131750000D01*
X111264285Y-131835714D01*
X111307142Y-131921428D01*
X111350000Y-132092857D01*
X111350000Y-132221428D01*
X111307142Y-132392857D01*
X111264285Y-132478571D01*
X111178571Y-132564285D01*
X111050000Y-132607142D01*
X110835714Y-132607142D01*
X111692857Y-131792857D02*
X111735714Y-131750000D01*
X111821428Y-131707142D01*
X112035714Y-131707142D01*
X112121428Y-131750000D01*
X112164285Y-131792857D01*
X112207142Y-131878571D01*
X112207142Y-131964285D01*
X112164285Y-132092857D01*
X111650000Y-132607142D01*
X112207142Y-132607142D01*
X108907142Y-133300000D02*
X109550000Y-133300000D01*
X109678571Y-133342857D01*
X109764285Y-133428571D01*
X109807142Y-133557142D01*
X109807142Y-133642857D01*
X109807142Y-132400000D02*
X109807142Y-132914285D01*
X109807142Y-132657142D02*
X108907142Y-132657142D01*
X109035714Y-132742857D01*
X109121428Y-132828571D01*
X109164285Y-132914285D01*
X137100000Y-126307142D02*
X137100000Y-126950000D01*
X137057142Y-127078571D01*
X136971428Y-127164285D01*
X136842857Y-127207142D01*
X136757142Y-127207142D01*
X137485714Y-126392857D02*
X137528571Y-126350000D01*
X137614285Y-126307142D01*
X137828571Y-126307142D01*
X137914285Y-126350000D01*
X137957142Y-126392857D01*
X138000000Y-126478571D01*
X138000000Y-126564285D01*
X137957142Y-126692857D01*
X137442857Y-127207142D01*
X138000000Y-127207142D01*
X142707142Y-133300000D02*
X143350000Y-133300000D01*
X143478571Y-133342857D01*
X143564285Y-133428571D01*
X143607142Y-133557142D01*
X143607142Y-133642857D01*
X142707142Y-132957142D02*
X142707142Y-132400000D01*
X143050000Y-132700000D01*
X143050000Y-132571428D01*
X143092857Y-132485714D01*
X143135714Y-132442857D01*
X143221428Y-132400000D01*
X143435714Y-132400000D01*
X143521428Y-132442857D01*
X143564285Y-132485714D01*
X143607142Y-132571428D01*
X143607142Y-132828571D01*
X143564285Y-132914285D01*
X143521428Y-132957142D01*
X140250000Y-124807142D02*
X139950000Y-124378571D01*
X139735714Y-124807142D02*
X139735714Y-123907142D01*
X140078571Y-123907142D01*
X140164285Y-123950000D01*
X140207142Y-123992857D01*
X140250000Y-124078571D01*
X140250000Y-124207142D01*
X140207142Y-124292857D01*
X140164285Y-124335714D01*
X140078571Y-124378571D01*
X139735714Y-124378571D01*
X141107142Y-124807142D02*
X140592857Y-124807142D01*
X140850000Y-124807142D02*
X140850000Y-123907142D01*
X140764285Y-124035714D01*
X140678571Y-124121428D01*
X140592857Y-124164285D01*
X114750000Y-131107142D02*
X114450000Y-130678571D01*
X114235714Y-131107142D02*
X114235714Y-130207142D01*
X114578571Y-130207142D01*
X114664285Y-130250000D01*
X114707142Y-130292857D01*
X114750000Y-130378571D01*
X114750000Y-130507142D01*
X114707142Y-130592857D01*
X114664285Y-130635714D01*
X114578571Y-130678571D01*
X114235714Y-130678571D01*
X115092857Y-130292857D02*
X115135714Y-130250000D01*
X115221428Y-130207142D01*
X115435714Y-130207142D01*
X115521428Y-130250000D01*
X115564285Y-130292857D01*
X115607142Y-130378571D01*
X115607142Y-130464285D01*
X115564285Y-130592857D01*
X115050000Y-131107142D01*
X115607142Y-131107142D01*
X117014285Y-135207142D02*
X117014285Y-135935714D01*
X117057142Y-136021428D01*
X117100000Y-136064285D01*
X117185714Y-136107142D01*
X117357142Y-136107142D01*
X117442857Y-136064285D01*
X117485714Y-136021428D01*
X117528571Y-135935714D01*
X117528571Y-135207142D01*
X118428571Y-136107142D02*
X117914285Y-136107142D01*
X118171428Y-136107142D02*
X118171428Y-135207142D01*
X118085714Y-135335714D01*
X118000000Y-135421428D01*
X117914285Y-135464285D01*
X117014285Y-129907142D02*
X117014285Y-130635714D01*
X117057142Y-130721428D01*
X117100000Y-130764285D01*
X117185714Y-130807142D01*
X117357142Y-130807142D01*
X117442857Y-130764285D01*
X117485714Y-130721428D01*
X117528571Y-130635714D01*
X117528571Y-129907142D01*
X117914285Y-129992857D02*
X117957142Y-129950000D01*
X118042857Y-129907142D01*
X118257142Y-129907142D01*
X118342857Y-129950000D01*
X118385714Y-129992857D01*
X118428571Y-130078571D01*
X118428571Y-130164285D01*
X118385714Y-130292857D01*
X117871428Y-130807142D01*
X118428571Y-130807142D01*
X127871428Y-137378571D02*
X127871428Y-137807142D01*
X127571428Y-136907142D02*
X127871428Y-137378571D01*
X128171428Y-136907142D01*
X128942857Y-137807142D02*
X128428571Y-137807142D01*
X128685714Y-137807142D02*
X128685714Y-136907142D01*
X128600000Y-137035714D01*
X128514285Y-137121428D01*
X128428571Y-137164285D01*
X141607142Y-137800000D02*
X142250000Y-137800000D01*
X142378571Y-137842857D01*
X142464285Y-137928571D01*
X142507142Y-138057142D01*
X142507142Y-138142857D01*
X141907142Y-136985714D02*
X142507142Y-136985714D01*
X141564285Y-137200000D02*
X142207142Y-137414285D01*
X142207142Y-136857142D01*
M02*
